# Blender 3.4.1
# www.blender.org
o open_left_1
v 0.375000 -1.500001 -0.250000
v 0.375000 1.500000 -0.250000
v 0.500000 -1.500001 -0.250000
v 0.500000 1.500000 -0.250000
v 0.375000 -1.500001 1.750000
v 0.375000 1.500000 1.750000
v 0.500000 -1.500001 1.750000
v 0.500000 1.500000 1.750000
v 0.375000 -1.500001 -0.250000
v 0.375000 1.500000 -0.250000
v 0.375000 -1.500001 1.750000
v 0.375000 1.500000 1.750000
v 0.500000 -1.500001 -0.250000
v 0.500000 1.500000 -0.250000
v 0.500000 -1.500001 1.750000
v 0.500000 1.500000 1.750000
v 0.500000 0.374999 1.375000
v 0.562500 0.250000 1.375000
v 0.562500 0.374999 1.375000
v 0.312500 0.250000 1.250000
v 0.500000 0.250000 1.250000
v 0.375000 0.374999 1.375000
v 0.375000 0.250000 1.375000
v 0.312500 0.374999 1.375000
v 0.312500 0.250000 1.375000
v 0.375000 0.374999 1.250000
v 0.375000 0.250000 1.250000
v 0.312500 0.374999 1.250000
v 0.500000 0.374999 1.250000
v 0.562500 0.250000 1.250000
v 0.562500 0.374999 1.250000
v 0.500000 0.250000 1.375000
v 0.250000 0.250000 1.250000
v 0.250000 0.374999 1.375000
v 0.250000 0.250000 1.375000
v 0.250000 0.374999 1.250000
v 0.625000 0.250000 1.375000
v 0.625000 0.374999 1.375000
v 0.625000 0.250000 1.250000
v 0.625000 0.374999 1.250000
v 0.562500 -0.125000 1.375000
v 0.312500 -0.125000 1.250000
v 0.312500 -0.125000 1.375000
v 0.562500 -0.125000 1.250000
v 0.250000 -0.125000 1.250000
v 0.250000 -0.125000 1.375000
v 0.625000 -0.125000 1.375000
v 0.625000 -0.125000 1.250000
v 0.562500 -0.250001 1.375000
v 0.312500 -0.250001 1.250000
v 0.312500 -0.250001 1.375000
v 0.562500 -0.250001 1.250000
v 0.250000 -0.250001 1.250000
v 0.250000 -0.250001 1.375000
v 0.625000 -0.250001 1.375000
v 0.625000 -0.250001 1.250000
v 0.500000 -0.125000 1.375000
v 0.500000 -0.125000 1.250000
v 0.500000 -0.250001 1.375000
v 0.500000 -0.250001 1.250000
v 0.375000 -0.125000 1.250000
v 0.375000 -0.125000 1.375000
v 0.375000 -0.250001 1.250000
v 0.375000 -0.250001 1.375000
vn -0.0000 -0.0000 -1.0000
vn -0.0000 -0.0000 1.0000
vn 1.0000 -0.0000 -0.0000
vn -0.0000 1.0000 -0.0000
vn -0.0000 -1.0000 -0.0000
vn -1.0000 -0.0000 -0.0000
vt 0.000000 0.000000
vt 0.020833 0.000000
vt 0.000000 1.000000
vt 0.020833 0.958333
vt 0.020833 0.000000
vt 0.020833 0.041667
vt 0.020833 1.000000
vt 0.354167 0.000000
vt 0.354167 1.000000
vt 0.354167 0.958333
vt 0.375000 -0.000000
vt 0.354167 0.041667
vt 0.375000 1.000000
vt 0.354167 1.000000
vt 0.020833 0.000000
vt 0.020833 1.000000
vt 0.354167 0.000000
vt 0.354167 1.000000
vt 0.708333 0.000000
vt 0.708333 1.000000
vt 0.375000 0.000000
vt 0.375000 1.000000
vt 0.979167 0.208333
vt 0.979167 0.125000
vt 0.979167 0.166667
vt 0.979167 0.145833
vt 0.989583 0.166667
vt 0.979167 0.145833
vt 0.989583 0.208333
vt 0.937500 0.020833
vt 0.958333 0.062500
vt 0.958333 0.166667
vt 0.947917 0.166667
vt 0.979167 0.166667
vt 0.958333 0.125000
vt 0.979167 0.083333
vt 0.958333 0.208333
vt 0.979167 0.083333
vt 0.958333 0.166667
vt 0.937500 0.020833
vt 0.979167 0.062500
vt 0.947917 0.208333
vt 0.979167 0.062500
vt 0.947917 0.166667
vt 0.979167 0.166667
vt 0.958333 0.083333
vt 0.958333 0.208333
vt 0.958333 0.083333
vt 0.958333 0.166667
vt 0.916667 0.020833
vt 0.958333 0.062500
vt 0.947917 0.208333
vt 0.979167 0.208333
vt 0.958333 0.125000
vt 0.958333 0.166667
vt 0.958333 0.145833
vt 0.989583 0.166667
vt 0.958333 0.145833
vt 0.989583 0.208333
vt 0.916667 0.020833
vt 0.979167 0.166667
vt 0.979167 0.125000
vt 0.958333 0.166667
vt 0.937500 0.166667
vt 0.937500 0.000000
vt 0.979167 0.208333
vt 0.937500 0.208333
vt 0.979167 0.166667
vt 0.937500 0.166667
vt 0.916667 0.000000
vt 0.958333 0.208333
vt 0.937500 0.208333
vt 0.979167 0.166667
vt 1.000000 0.166667
vt 0.979167 0.208333
vt 1.000000 0.208333
vt 0.937500 0.041667
vt 1.000000 0.166667
vt 0.958333 0.166667
vt 0.958333 0.208333
vt 1.000000 0.208333
vt 0.916667 0.041667
vt 0.979167 0.041667
vt 0.979167 0.145833
vt 0.989583 0.041667
vt 0.958333 0.041667
vt 0.947917 0.041667
vt 0.958333 0.062500
vt 0.979167 0.041667
vt 0.947917 0.041667
vt 0.979167 0.062500
vt 0.958333 0.041667
vt 0.958333 0.145833
vt 0.989583 0.041667
vt 0.958333 0.041667
vt 0.937500 0.041667
vt 0.937500 0.041667
vt 0.979167 0.041667
vt 1.000000 0.041667
vt 0.979167 0.041667
vt 1.000000 0.041667
vt 0.958333 0.041667
vt 0.937500 0.020833
vt 0.989583 0.000000
vt 0.979167 0.145833
vt 0.916667 0.020833
vt 0.958333 0.062500
vt 0.947917 0.000000
vt 0.937500 0.020833
vt 0.979167 0.062500
vt 0.947917 0.000000
vt 0.916667 0.020833
vt 0.958333 0.145833
vt 0.989583 0.000000
vt 0.916667 0.000000
vt 0.958333 0.000000
vt 0.937500 0.000000
vt 0.937500 0.000000
vt 0.979167 0.000000
vt 0.937500 0.041667
vt 1.000000 0.000000
vt 0.979167 0.000000
vt 1.000000 0.000000
vt 0.916667 0.041667
vt 0.958333 0.000000
vt 0.979167 0.125000
vt 0.979167 0.041667
vt 0.958333 0.125000
vt 0.958333 0.041667
vt 0.979167 0.041667
vt 0.979167 0.000000
vt 0.979167 0.125000
vt 0.958333 0.000000
vt 0.958333 0.125000
vt 0.979167 0.000000
vt 0.958333 0.041667
vt 0.958333 0.083333
vt 0.979167 0.041667
vt 0.958333 0.041667
vt 0.979167 0.083333
vt 0.958333 0.083333
vt 0.958333 0.000000
vt 0.979167 0.083333
vt 0.979167 0.000000
vt 0.958333 0.000000
s 0
f 1/1/1 2/3/1 4/7/1 3/5/1
f 7/11/2 8/13/2 6/9/2 5/8/2
f 13/19/3 14/20/3 16/22/3 15/21/3
f 8/14/4 4/7/4 2/4/4 6/10/4
f 3/6/5 7/12/5 5/8/5 1/2/5
f 11/17/6 12/18/6 10/16/6 9/15/6
f 18/27/2 19/29/2 17/23/2 32/61/2
f 21/34/1 29/53/1 31/59/1 30/57/1
f 18/25/6 30/55/6 44/92/6 41/83/6
f 30/56/5 18/26/5 32/62/5 21/35/5
f 24/40/4 28/50/4 36/70/4 34/65/4
f 27/48/5 23/38/5 25/43/5 20/31/5
f 22/36/4 26/46/4 28/51/4 24/41/4
f 23/39/2 22/37/2 24/42/2 25/44/2
f 20/33/1 28/52/1 26/47/1 27/49/1
f 19/28/4 31/58/4 29/54/4 17/24/4
f 35/68/6 34/66/6 36/71/6 33/63/6
f 28/52/1 20/33/1 33/64/1 36/72/1
f 35/68/6 33/63/6 45/95/6 46/98/6
f 25/44/2 24/42/2 34/67/2 35/69/2
f 39/79/3 40/80/3 38/75/3 37/73/3
f 30/57/1 31/59/1 40/81/1 39/78/1
f 19/29/2 18/27/2 37/74/2 38/76/2
f 31/60/4 19/30/4 38/77/4 40/82/4
f 43/90/2 46/97/2 54/118/2 51/111/2
f 44/94/1 48/101/1 56/123/1 52/114/1
f 25/44/2 35/69/2 46/97/2 43/90/2
f 20/32/3 25/45/3 43/89/3 42/86/3
f 30/57/1 39/78/1 48/101/1 44/94/1
f 39/79/3 37/73/3 47/100/3 48/102/3
f 33/64/1 20/33/1 42/87/1 45/96/1
f 37/74/2 18/27/2 41/85/2 47/99/2
f 49/103/5 52/112/5 56/124/5 55/120/5
f 50/106/5 51/109/5 54/118/5 53/115/5
f 46/98/6 45/95/6 53/116/6 54/119/6
f 41/84/4 44/93/4 58/128/4 57/126/4
f 47/99/2 41/85/2 49/104/2 55/121/2
f 48/102/3 47/100/3 55/122/3 56/125/3
f 45/96/1 42/87/1 50/108/1 53/117/1
f 51/110/5 50/107/5 63/141/5 64/143/5
f 57/127/6 58/129/6 60/133/6 59/131/6
f 49/104/2 41/85/2 57/127/2 59/131/2
f 52/113/5 49/105/5 59/132/5 60/134/5
f 44/94/1 52/114/1 60/135/1 58/130/1
f 61/136/3 62/138/3 64/144/3 63/142/3
f 50/108/1 42/87/1 61/136/1 63/142/1
f 43/90/2 51/111/2 64/145/2 62/139/2
f 42/88/4 43/91/4 62/140/4 61/137/4
