# Blender 3.4.1
# www.blender.org
o Cube
v -0.312500 -0.500000 0.250000
v -0.312500 0.000000 0.250000
v -0.312500 -0.500000 0.125000
v -0.312500 0.000000 0.125000
v -0.187500 -0.500000 0.250000
v -0.187500 0.000000 0.250000
v -0.187500 -0.500000 0.125000
v -0.187500 0.000000 0.125000
v 0.312500 -0.500000 -0.125000
v 0.312500 0.000000 -0.125000
v 0.312500 -0.500000 -0.250000
v 0.312500 0.000000 -0.250000
v 0.312500 0.000000 0.125000
v 0.312500 -0.500000 0.125000
v 0.312500 0.000000 0.250000
v 0.312500 -0.500000 0.250000
v 0.187500 0.000000 0.125000
v 0.187500 -0.500000 0.125000
v 0.187500 0.000000 0.250000
v 0.187500 -0.500000 0.250000
v 0.187500 0.000000 -0.250000
v 0.187500 -0.500000 -0.250000
v 0.187500 0.000000 -0.125000
v 0.187500 -0.500000 -0.125000
v -0.187500 -0.500000 -0.125000
v -0.187500 0.000000 -0.125000
v -0.187500 -0.500000 -0.250000
v -0.187500 0.000000 -0.250000
v -0.312500 0.000000 -0.250000
v -0.312500 -0.500000 -0.250000
v -0.312500 0.000000 -0.125000
v -0.312500 -0.500000 -0.125000
v 0.187500 0.125000 -0.250000
v 0.250000 0.125000 -0.250000
v 0.250000 0.125000 -0.312500
v 0.187500 0.125000 -0.312500
v 0.312500 0.125000 -0.250000
v 0.375000 0.125000 -0.250000
v 0.375000 0.125000 -0.187500
v 0.312500 0.125000 -0.187500
v -0.375000 0.125000 -0.187500
v -0.312500 0.125000 -0.187500
v -0.312500 0.125000 -0.250000
v -0.375000 0.125000 -0.250000
v -0.375000 0.000000 0.250000
v -0.375000 0.125000 0.250000
v -0.375000 0.000000 -0.250000
v -0.375000 0.125000 -0.250000
v 0.375000 0.125000 -0.250000
v 0.375000 0.000000 -0.250000
v 0.375000 0.125000 0.250000
v 0.375000 0.000000 0.250000
v 0.062500 0.125000 -0.312500
v 0.125000 0.125000 -0.312500
v 0.125000 0.125000 -0.375000
v 0.062500 0.125000 -0.375000
v -0.125000 0.125000 -0.312500
v -0.062500 0.125000 -0.312500
v -0.062500 0.125000 -0.375000
v -0.125000 0.125000 -0.375000
v -0.250000 0.125000 -0.250000
v -0.187500 0.125000 -0.250000
v -0.187500 0.125000 -0.312500
v -0.250000 0.125000 -0.312500
v 0.187500 0.500000 -0.312500
v 0.250000 0.500000 -0.312500
v 0.250000 0.500000 -0.375000
v 0.187500 0.500000 -0.375000
v 0.312500 0.500000 -0.312500
v 0.375000 0.500000 -0.312500
v 0.375000 0.500000 -0.250000
v 0.312500 0.500000 -0.250000
v -0.375000 0.500000 -0.250000
v -0.312500 0.500000 -0.250000
v -0.312500 0.500000 -0.312500
v -0.375000 0.500000 -0.312500
v 0.062500 0.500000 -0.375000
v 0.125000 0.500000 -0.375000
v 0.125000 0.500000 -0.437500
v 0.062500 0.500000 -0.437500
v -0.125000 0.500000 -0.375000
v -0.062500 0.500000 -0.375000
v -0.062500 0.500000 -0.437500
v -0.125000 0.500000 -0.437500
v -0.250000 0.500000 -0.312500
v -0.187500 0.500000 -0.312500
v -0.187500 0.500000 -0.375000
v -0.250000 0.500000 -0.375000
v -0.187500 0.000000 0.375000
v -0.187500 0.125000 -0.375000
v -0.187500 0.000000 -0.375000
v -0.187500 0.125000 0.375000
v 0.187500 0.000000 0.375000
v 0.187500 0.125000 -0.375000
v 0.187500 0.000000 -0.375000
v 0.187500 0.125000 0.375000
v -0.312500 0.500000 -0.250000
v -0.312500 0.812500 -0.250000
v -0.312500 0.500000 -0.312500
v -0.312500 0.812500 -0.312500
v 0.312500 0.812500 -0.312500
v 0.312500 0.500000 -0.312500
v 0.312500 0.812500 -0.250000
v 0.312500 0.500000 -0.250000
v -0.187500 0.500000 -0.312500
v -0.187500 0.875000 -0.437500
v -0.187500 0.500000 -0.437500
v -0.187500 0.875000 -0.375000
v 0.187500 0.500000 -0.312500
v 0.187500 0.875000 -0.437500
v 0.187500 0.500000 -0.437500
v 0.187500 0.875000 -0.375000
v -0.375000 0.750000 -0.312500
v -0.375000 0.500000 -0.312500
v -0.375000 0.500000 -0.250000
v -0.375000 0.750000 -0.250000
v 0.375000 0.500000 -0.250000
v 0.375000 0.500000 -0.312500
v 0.375000 0.750000 -0.312500
v 0.375000 0.750000 -0.250000
vn -1.0000 -0.0000 -0.0000
vn -0.0000 -0.0000 -1.0000
vn 1.0000 -0.0000 -0.0000
vn -0.0000 -0.0000 1.0000
vn -0.0000 -1.0000 -0.0000
vn -0.0000 -0.1644 -0.9864
vn -0.0000 0.1644 0.9864
vn 0.5547 -0.0000 -0.8321
vn -0.0000 1.0000 -0.0000
vn -0.5547 -0.0000 0.8321
vn -0.5547 -0.0000 -0.8321
vn 0.5547 -0.0000 0.8321
vn 0.7071 -0.0000 -0.7071
vn -0.4472 0.8944 -0.0000
vn 0.5866 0.0733 0.8066
vn -0.7071 -0.0000 -0.7071
vn 0.4472 0.8944 -0.0000
vn -0.5866 0.0733 0.8066
vn -0.7071 0.7071 -0.0000
vn 0.7071 0.7071 -0.0000
vt 0.662932 0.820548
vt 0.602046 0.585749
vt 0.788844 0.293811
vt 0.662932 0.586998
vt 0.602046 0.352199
vt 0.721319 0.820548
vt 0.722569 0.820548
vt 0.788844 0.235424
vt 0.721319 0.586998
vt 0.722569 0.586998
vt 0.542409 0.585748
vt 0.543658 0.585748
vt 0.847231 0.293811
vt 0.542409 0.352199
vt 0.543659 0.352199
vt 0.780956 0.820548
vt 0.484022 0.585748
vt 0.847231 0.235424
vt 0.780956 0.586998
vt 0.484022 0.352199
vt 0.784704 0.821797
vt 0.782206 0.585749
vt 0.721319 0.585749
vt 0.782206 0.352199
vt 0.721320 0.352199
vt 0.784704 0.880184
vt 0.662932 0.585748
vt 0.542409 0.820548
vt 0.662932 0.352199
vt 0.542409 0.586998
vt 0.543658 0.586998
vt 0.661683 0.352199
vt 0.783455 0.821797
vt 0.543658 0.820548
vt 0.661683 0.585749
vt 0.703773 0.000625
vt 0.602046 0.586998
vt 0.783455 0.880184
vt 0.703773 0.234174
vt 0.602046 0.820548
vt 0.603295 0.352199
vt 0.821797 0.000625
vt 0.725067 0.821797
vt 0.603295 0.585749
vt 0.821797 0.234174
vt 0.762160 0.000625
vt 0.763410 0.000625
vt 0.725067 0.880184
vt 0.762160 0.234174
vt 0.763409 0.234174
vt 0.484022 0.586998
vt 0.661683 0.586998
vt 0.843091 0.880184
vt 0.484022 0.820548
vt 0.661683 0.820548
vt 0.840593 0.352199
vt 0.603295 0.586998
vt 0.843091 0.821797
vt 0.840593 0.585749
vt 0.603295 0.820548
vt 0.723818 0.880184
vt 0.722569 0.585749
vt 0.941070 0.234174
vt 0.722569 0.352199
vt 0.941071 0.000625
vt 0.723818 0.821797
vt 0.882683 0.234174
vt 0.881434 0.234174
vt 0.882683 0.000625
vt 0.881434 0.000625
vt 0.823046 0.000625
vt 0.840593 0.586998
vt 0.665431 0.821797
vt 0.823046 0.234174
vt 0.840593 0.820548
vt 0.780956 0.352199
vt 0.782206 0.586998
vt 0.665431 0.880184
vt 0.780956 0.585749
vt 0.782206 0.820548
vt 0.309314 0.929721
vt 0.090307 0.738681
vt 0.338508 0.929721
vt 0.930276 0.719453
vt 0.961968 0.708605
vt 0.901479 0.724253
vt 0.991162 0.708605
vt 0.119104 0.743481
vt 0.901479 0.529777
vt 0.960719 0.713404
vt 0.218382 0.756942
vt 0.931525 0.713404
vt 0.247179 0.752142
vt 0.960719 0.529777
vt 0.930276 0.534577
vt 0.931525 0.529777
vt 0.901479 0.535826
vt 0.942320 0.178203
vt 0.971514 0.178203
vt 0.150399 0.921059
vt 0.513215 0.821797
vt 0.179195 0.916260
vt 0.930276 0.540625
vt 0.484022 0.821797
vt 0.482772 0.352199
vt 0.841842 0.586998
vt 0.292562 0.350949
vt 0.410586 0.350949
vt 0.424385 0.352199
vt 0.900230 0.586998
vt 0.841842 0.820548
vt 0.059012 0.350949
vt 0.423136 0.737880
vt 0.644136 0.350949
vt 0.900230 0.820548
vt 0.364748 0.737880
vt 0.364748 0.352199
vt 0.841842 0.585748
vt 0.644136 0.000625
vt 0.423136 0.352199
vt 0.900230 0.585748
vt 0.059012 0.000625
vt 0.841842 0.352199
vt 0.410586 0.000625
vt 0.424385 0.737880
vt 0.900230 0.352199
vt 0.292562 0.000625
vt 0.482772 0.737880
vt 0.393545 0.921507
vt 0.931525 0.897032
vt 0.960719 0.897032
vt 0.423590 0.739129
vt 0.572852 0.821797
vt 0.394794 0.743929
vt 0.364748 0.916708
vt 0.543658 0.821797
vt 0.149150 0.921059
vt 0.961968 0.529777
vt 0.991162 0.529777
vt 0.453636 0.739129
vt 0.278871 0.929721
vt 0.424840 0.743929
vt 0.120353 0.916260
vt 0.308065 0.929721
vt 0.248428 0.929721
vt 0.060261 0.738681
vt 0.277622 0.929721
vt 0.217133 0.752142
vt 0.961968 0.892232
vt 0.188336 0.756942
vt 0.089058 0.743481
vt 0.991162 0.892232
vt 0.309314 0.752143
vt 0.090307 0.916260
vt 0.338508 0.752143
vt 0.930276 0.897032
vt 0.961968 0.531026
vt 0.901479 0.901831
vt 0.991162 0.531026
vt 0.119104 0.921059
vt 0.901479 0.352199
vt 0.960719 0.535826
vt 0.218382 0.934520
vt 0.931525 0.535826
vt 0.247179 0.929721
vt 0.960719 0.352199
vt 0.930276 0.356998
vt 0.931525 0.352199
vt 0.901479 0.713404
vt 0.942320 0.000625
vt 0.971514 0.000625
vt 0.150399 0.743481
vt 0.513215 0.999375
vt 0.179195 0.738681
vt 0.930276 0.718204
vt 0.484022 0.999375
vt 0.393545 0.743929
vt 0.931525 0.719453
vt 0.960719 0.719453
vt 0.423590 0.916708
vt 0.572852 0.999375
vt 0.394794 0.921507
vt 0.364748 0.739129
vt 0.543658 0.999375
vt 0.149150 0.743481
vt 0.961968 0.352199
vt 0.991162 0.352199
vt 0.453636 0.916708
vt 0.278871 0.752142
vt 0.424840 0.921507
vt 0.120353 0.738681
vt 0.308065 0.752142
vt 0.248428 0.752143
vt 0.060261 0.916260
vt 0.277622 0.752142
vt 0.217133 0.929721
vt 0.961968 0.714654
vt 0.188336 0.934520
vt 0.089058 0.921059
vt 0.991162 0.714654
vt 0.482772 0.457458
vt 0.350949 0.263368
vt 0.702523 0.263368
vt 0.364748 0.632621
vt 0.000625 0.263368
vt 0.423136 0.632621
vt 0.424385 0.457458
vt 0.352199 0.263368
vt 0.482772 0.632621
vt 0.350949 0.088206
vt 0.702523 0.088206
vt 0.364748 0.457458
vt 0.000625 0.088206
vt 0.423136 0.457458
vt 0.352199 0.088206
vt 0.424385 0.632621
vt 0.877674 0.264618
vt 0.766951 0.235424
vt 0.003370 0.697386
vt 0.476645 0.739129
vt 0.819287 0.295061
vt 0.148692 0.711113
vt 0.877674 0.235424
vt 0.787594 0.256067
vt 0.363499 0.721699
vt 0.454886 0.758592
vt 0.848481 0.295061
vt 0.217530 0.721699
vt 0.361517 0.771605
vt 0.217530 0.381392
vt 0.788844 0.295061
vt 0.745059 0.317996
vt 0.363499 0.381392
vt 0.844341 0.821797
vt 0.339757 0.752142
vt 0.148692 0.378518
vt 0.818038 0.295061
vt 0.724416 0.338639
vt 0.003370 0.392244
vt 0.844341 0.850991
vt 0.746308 0.297353
vt 0.009509 0.632396
vt 0.059012 0.913844
vt 0.454886 0.846173
vt 0.603295 0.996959
vt 0.188336 0.639127
vt 0.787594 0.338639
vt 0.000625 0.913844
vt 0.363499 0.639127
vt 0.476645 0.826710
vt 0.187087 0.632396
vt 0.574101 0.996959
vt 0.703773 0.276710
vt 0.009509 0.457234
vt 0.059012 0.738681
vt 0.603295 0.821797
vt 0.361517 0.859186
vt 0.188336 0.463965
vt 0.745059 0.235424
vt 0.000625 0.738681
vt 0.363499 0.463965
vt 0.574101 0.821797
vt 0.339757 0.839724
vt 0.187087 0.457234
vt 0.633738 0.821797
vt 0.848481 0.336347
vt 0.246724 0.750893
vt 0.848480 0.235424
vt 0.633738 0.938572
vt 0.363499 0.750893
vt 0.848480 0.264618
vt 0.604544 0.938572
vt 0.000625 0.726451
vt 0.604544 0.821797
vt 0.819287 0.336347
vt 0.116882 0.737432
vt 0.000625 0.363180
vt 0.664181 0.938572
vt 0.873534 0.850991
vt 0.634988 0.938572
vt 0.363499 0.352199
vt 0.873534 0.821797
vt 0.634988 0.821797
vt 0.246724 0.352199
vt 0.788844 0.336347
vt 0.116882 0.352199
vt 0.664181 0.821797
vt 0.818037 0.336347
s 0
f 1/1/1 2/4/1 4/9/1 3/6/1
f 3/7/2 4/10/2 8/19/2 7/16/2
f 7/17/3 8/20/3 6/14/3 5/11/3
f 5/12/4 6/15/4 2/5/4 1/2/4
f 22/53/5 11/26/5 9/21/5 24/58/5
f 18/43/5 14/33/5 16/38/5 20/48/5
f 16/39/4 15/36/4 19/46/4 20/49/4
f 14/34/3 13/31/3 15/37/3 16/40/3
f 18/44/2 17/41/2 13/32/2 14/35/2
f 20/50/1 19/47/1 17/42/1 18/45/1
f 3/8/5 7/18/5 5/13/5 1/3/5
f 9/22/4 10/24/4 23/56/4 24/59/4
f 11/27/3 12/29/3 10/25/3 9/23/3
f 22/54/2 21/51/2 12/30/2 11/28/2
f 24/60/1 23/57/1 21/52/1 22/55/1
f 30/73/5 27/66/5 25/61/5 32/78/5
f 25/62/4 26/64/4 31/76/4 32/79/4
f 27/67/3 28/69/3 26/65/3 25/63/3
f 30/74/2 29/71/2 28/70/2 27/68/2
f 32/80/1 31/77/1 29/72/1 30/75/1
f 33/81/6 65/153/6 66/155/6 34/83/6
f 60/143/3 84/191/3 81/185/3 57/137/3
f 39/93/1 71/165/1 70/163/1 38/91/1
f 37/89/3 69/161/3 72/167/3 40/95/3
f 35/85/7 67/157/7 68/159/7 36/87/7
f 40/96/6 72/168/6 71/166/6 39/94/6
f 38/92/7 70/164/7 69/162/7 37/90/7
f 44/103/3 76/175/3 73/169/3 41/97/3
f 41/98/6 73/170/6 74/171/6 42/99/6
f 34/84/1 66/156/1 67/158/1 35/86/1
f 44/104/7 43/101/7 75/173/7 76/176/7
f 42/100/1 74/172/1 75/174/1 43/102/1
f 56/135/3 80/183/3 77/177/3 53/129/3
f 55/133/7 79/181/7 80/184/7 56/136/7
f 95/214/8 94/212/8 49/117/8 50/120/8
f 90/203/9 48/114/9 46/108/9 92/208/9
f 50/121/3 49/118/3 51/123/3 52/126/3
f 89/201/10 92/207/10 46/109/10 45/105/10
f 95/213/5 50/122/5 52/127/5 93/210/5
f 45/106/1 46/110/1 48/115/1 47/111/1
f 53/130/6 77/178/6 78/179/6 54/131/6
f 61/145/6 85/193/6 86/195/6 62/147/6
f 55/134/1 54/132/1 78/180/1 79/182/1
f 57/138/6 81/186/6 82/187/6 58/139/6
f 59/141/7 83/189/7 84/192/7 60/144/7
f 64/151/3 88/199/3 85/194/3 61/146/3
f 58/140/1 82/188/1 83/190/1 59/142/1
f 63/149/7 87/197/7 88/200/7 64/152/7
f 62/148/1 86/196/1 87/198/1 63/150/1
f 47/112/5 91/205/5 89/202/5 45/107/5
f 93/209/4 96/216/4 92/207/4 89/201/4
f 94/211/9 90/203/9 92/208/9 96/215/9
f 47/113/11 48/116/11 90/204/11 91/206/11
f 49/119/9 94/211/9 96/215/9 51/124/9
f 52/128/12 51/125/12 96/216/12 93/209/12
f 91/205/5 95/213/5 93/210/5 89/202/5
f 91/206/2 90/204/2 94/212/2 95/214/2
f 111/261/13 110/258/13 101/230/13 102/233/13
f 106/244/14 100/226/14 98/220/14 108/250/14
f 103/236/4 104/239/4 117/277/4 120/286/4
f 105/242/15 108/251/15 98/222/15 97/219/15
f 111/259/5 102/232/5 104/238/5 109/253/5
f 99/223/5 97/217/5 115/271/5 114/268/5
f 99/224/5 107/247/5 105/241/5 97/218/5
f 109/254/7 112/264/7 108/251/7 105/242/7
f 110/256/9 106/245/9 108/252/9 112/262/9
f 99/225/16 100/228/16 106/246/16 107/249/16
f 101/229/17 110/257/17 112/263/17 103/235/17
f 104/239/18 103/236/18 112/264/18 109/254/18
f 107/248/5 111/260/5 109/255/5 105/243/5
f 107/249/2 106/246/2 110/258/2 111/261/2
f 115/272/1 116/274/1 113/265/1 114/269/1
f 98/221/19 100/227/19 113/266/19 116/275/19
f 97/219/4 98/222/4 116/276/4 115/273/4
f 100/228/2 99/225/2 114/270/2 113/267/2
f 118/280/3 119/283/3 120/287/3 117/278/3
f 102/233/2 101/230/2 119/284/2 118/281/2
f 101/231/20 103/237/20 120/288/20 119/285/20
f 104/240/5 102/234/5 118/282/5 117/279/5
f 36/88/3 68/160/3 65/154/3 33/82/3
