# Blender 3.4.1
# www.blender.org
o left_open_0
v 0.375000 -1.500001 -0.250000
v 0.375000 1.500000 -0.250000
v 0.500000 -1.500001 -0.250000
v 0.500000 1.500000 -0.250000
v 0.375000 -1.500001 1.750000
v 0.375000 1.500000 1.750000
v 0.500000 -1.500001 1.750000
v 0.500000 1.500000 1.750000
v 0.500000 0.124999 1.375000
v 0.625000 -0.125000 1.375000
v 0.625000 0.124999 1.375000
v 0.250000 -0.125000 1.125000
v 0.500000 -0.125000 1.125000
v 0.375000 0.124999 1.375000
v 0.375000 -0.125000 1.375000
v 0.250000 0.124999 1.375000
v 0.250000 -0.125000 1.375000
v 0.375000 0.124999 1.125000
v 0.375000 -0.125000 1.125000
v 0.250000 0.124999 1.125000
v 0.500000 0.124999 1.125000
v 0.625000 -0.125000 1.125000
v 0.625000 0.124999 1.125000
v 0.500000 -0.125000 1.375000
v 0.375000 -1.500001 -0.250000
v 0.375000 1.500000 -0.250000
v 0.375000 -1.500001 1.750000
v 0.375000 1.500000 1.750000
v 0.500000 -1.500001 -0.250000
v 0.500000 1.500000 -0.250000
v 0.500000 -1.500001 1.750000
v 0.500000 1.500000 1.750000
vn -0.0000 -0.0000 -1.0000
vn -0.0000 -0.0000 1.0000
vn 1.0000 -0.0000 -0.0000
vn -0.0000 1.0000 -0.0000
vn -0.0000 -1.0000 -0.0000
vn -1.0000 -0.0000 -0.0000
vt 0.000000 -0.000000
vt 0.020833 0.000000
vt 0.000000 1.000000
vt 0.020833 0.958333
vt 0.020833 -0.000000
vt 0.020833 0.041667
vt 0.020833 1.000000
vt 0.354167 0.000000
vt 0.354167 1.000000
vt 0.354167 0.958333
vt 0.375000 0.000000
vt 0.354167 0.041667
vt 0.375000 1.000000
vt 0.354167 1.000000
vt 0.916667 0.125000
vt 0.979167 0.125000
vt 0.937500 0.041667
vt 0.979167 0.041667
vt 0.937500 0.125000
vt 0.979167 0.125000
vt 0.979167 0.166667
vt 0.937500 0.041667
vt 0.937500 0.000000
vt 0.916667 0.041667
vt 0.979167 0.041667
vt 0.937500 0.000000
vt 0.979167 0.166667
vt 1.000000 0.125000
vt 0.979167 0.041667
vt 1.000000 0.041667
vt 0.979167 0.125000
vt 0.979167 0.000000
vt 0.979167 0.041667
vt 0.937500 0.166667
vt 0.937500 0.125000
vt 0.937500 0.041667
vt 0.937500 0.125000
vt 0.916667 0.125000
vt 0.979167 0.125000
vt 0.937500 0.125000
vt 1.000000 0.041667
vt 0.937500 0.041667
vt 1.000000 0.125000
vt 0.937500 0.125000
vt 0.937500 0.166667
vt 0.916667 0.041667
vt 0.979167 0.000000
vt 0.375000 0.000000
vt 0.375000 1.000000
vt 0.708333 0.000000
vt 0.708333 1.000000
vt 0.020833 -0.000000
vt 0.020833 1.000000
vt 0.354167 -0.000000
vt 0.354167 1.000000
s 0
f 1/1/1 2/3/1 4/7/1 3/5/1
f 7/11/2 8/13/2 6/9/2 5/8/2
f 29/52/3 30/53/3 32/55/3 31/54/3
f 8/14/4 4/7/4 2/4/4 6/10/4
f 10/17/2 11/19/2 9/15/2 24/46/2
f 13/25/1 21/39/1 23/43/1 22/41/1
f 22/42/3 23/44/3 11/20/3 10/18/3
f 22/42/5 10/18/5 24/47/5 13/26/5
f 17/33/6 16/31/6 20/37/6 12/22/6
f 19/36/5 15/29/5 17/32/5 12/23/5
f 14/27/4 18/34/4 20/37/4 16/31/4
f 15/30/2 14/28/2 16/31/2 17/33/2
f 12/24/1 20/38/1 18/35/1 19/36/1
f 3/6/5 7/12/5 5/8/5 1/2/5
f 11/21/4 23/45/4 21/40/4 9/16/4
f 27/50/6 28/51/6 26/49/6 25/48/6
