# Blender 3.6.23
# www.blender.org
o blinds_2x2_broken_0
v 0.500000 0.400000 0.825000
v 0.500000 0.500000 0.856250
v 0.500000 0.400000 0.843750
v 0.500000 0.500000 0.875000
v -1.500000 0.400000 0.825000
v -1.500000 0.500000 0.856250
v -1.500000 0.400000 0.843750
v -1.500000 0.500000 0.875000
v 0.500092 -1.123556 0.792887
v 0.495896 -1.049702 0.867079
v 0.500639 -1.132264 0.809484
v 0.496444 -1.058409 0.883676
v -1.496444 -1.241156 0.797040
v -1.500639 -1.167301 0.871232
v -1.495896 -1.249863 0.813637
v -1.500092 -1.176008 0.887829
v -1.500000 -1.233052 0.890472
v -1.500000 -1.299900 0.809801
v -1.500000 -1.222840 0.874747
v -1.500000 -1.289688 0.794076
v 0.500000 -1.233052 0.890472
v 0.500000 -1.299900 0.809801
v 0.500000 -1.222840 0.874747
v 0.500000 -1.289688 0.794076
v 0.498146 -1.448799 0.803949
v 0.500937 -1.366078 0.868183
v 0.497926 -1.455349 0.821516
v 0.500716 -1.372628 0.885750
v -1.500716 -1.381364 0.803949
v -1.497926 -1.298643 0.868183
v -1.500937 -1.387914 0.821516
v -1.498147 -1.305193 0.885750
v -1.498102 -0.966638 0.913509
v -1.500872 -1.017489 0.821949
v -1.497802 -0.953717 0.899924
v -1.500571 -1.004569 0.808365
v 0.500571 -1.036096 0.891635
v 0.497802 -1.086947 0.800076
v 0.500872 -1.023176 0.878051
v 0.498103 -1.074027 0.786492
v 0.499359 -0.576919 0.808289
v 0.500533 -0.495561 0.874289
v 0.499259 -0.583849 0.825711
v 0.500433 -0.502491 0.891711
v -1.500433 -0.548063 0.808289
v -1.499259 -0.466705 0.874289
v -1.500533 -0.554993 0.825711
v -1.499359 -0.473635 0.891711
v -1.500770 -0.894042 0.875000
v -1.498867 -0.994024 0.843750
v -1.500770 -0.894042 0.856250
v -1.498867 -0.994024 0.825000
v 0.498867 -0.855976 0.875000
v 0.500771 -0.955958 0.843750
v 0.498867 -0.855976 0.856250
v 0.500771 -0.955958 0.825000
v 0.495302 -0.885465 0.825000
v 0.496995 -0.785480 0.856250
v 0.495302 -0.885465 0.843750
v 0.496995 -0.785480 0.875000
v -1.504412 -0.851605 0.825000
v -1.502719 -0.751619 0.856250
v -1.504412 -0.851605 0.843750
v -1.502719 -0.751619 0.875000
v -1.511212 -0.639756 0.893674
v -1.510506 -0.697559 0.806296
v -1.511353 -0.627917 0.879135
v -1.510647 -0.685720 0.791757
v 0.488643 -0.615730 0.893936
v 0.489349 -0.673533 0.806558
v 0.488503 -0.603891 0.879397
v 0.489209 -0.661694 0.792019
v 0.500391 -0.198710 0.807813
v 0.499348 -0.118207 0.874856
v 0.500484 -0.205864 0.825144
v 0.499440 -0.125361 0.892187
v -1.499440 -0.224639 0.807813
v -1.500484 -0.144136 0.874856
v -1.499348 -0.231793 0.825144
v -1.500391 -0.151290 0.892187
v -1.499999 -0.303759 0.906045
v -1.497619 -0.358992 0.817049
v -1.500527 -0.291519 0.891851
v -1.498146 -0.346752 0.802855
v 0.498146 -0.217647 0.906045
v 0.500527 -0.272880 0.817049
v 0.497619 -0.205407 0.891851
v 0.499999 -0.260640 0.802855
v 0.500000 -0.450090 0.804004
v 0.500000 -0.386909 0.882987
v 0.500000 -0.465670 0.814435
v 0.500000 -0.397331 0.898574
v -1.500000 -0.450090 0.804004
v -1.500000 -0.386909 0.882987
v -1.500000 -0.465670 0.814435
v -1.500000 -0.397331 0.898574
v -1.500000 0.000000 0.875000
v -1.500000 -0.100000 0.843750
v -1.500000 0.000000 0.856250
v -1.500000 -0.100000 0.825000
v 0.500000 0.000000 0.875000
v 0.500000 -0.100000 0.843750
v 0.500000 0.000000 0.856250
v 0.500000 -0.100000 0.825000
v -1.500564 0.112031 0.875000
v -1.499268 0.012039 0.843750
v -1.500564 0.112031 0.856250
v -1.499268 0.012039 0.825000
v 0.499268 0.137961 0.875000
v 0.500564 0.037969 0.843750
v 0.499268 0.137961 0.856250
v 0.500564 0.037969 0.825000
v 0.500000 0.187294 0.795561
v 0.500000 0.227132 0.892461
v 0.500000 0.172868 0.807539
v 0.500000 0.212706 0.904438
v -1.500000 0.187294 0.795561
v -1.500000 0.227132 0.892461
v -1.500000 0.172868 0.807539
v -1.500000 0.212706 0.904438
v -1.498379 0.383324 0.904438
v -1.500196 0.343527 0.807539
v -1.497720 0.397734 0.892461
v -1.499538 0.357938 0.795561
v 0.499538 0.292062 0.904438
v 0.497720 0.252266 0.807539
v 0.500196 0.306473 0.892461
v 0.498379 0.266676 0.795561
v 0.262500 -1.500000 0.862500
v 0.262500 0.500000 0.862500
v 0.262500 -1.500000 0.887500
v 0.262500 0.500000 0.887500
v 0.237500 -1.500000 0.862500
v 0.237500 0.500000 0.862500
v 0.237500 -1.500000 0.887500
v 0.237500 0.500000 0.887500
v -1.237500 -1.500000 0.862500
v -1.237500 0.500000 0.862500
v -1.237500 -1.500000 0.887500
v -1.237500 0.500000 0.887500
v -1.262500 -1.500000 0.862500
v -1.262500 0.500000 0.862500
v -1.262500 -1.500000 0.887500
v -1.262500 0.500000 0.887500
vn 1.0000 -0.0000 -0.0000
vn -0.0000 -0.2983 0.9545
vn -1.0000 -0.0000 -0.0000
vn -0.0000 0.2983 -0.9545
vn -0.0000 -1.0000 -0.0000
vn -0.0000 1.0000 -0.0000
vn 0.9983 0.0588 -0.0021
vn 0.0431 -0.7068 0.7061
vn -0.9983 -0.0588 0.0021
vn -0.0431 0.7068 -0.7061
vn 0.0511 -0.8837 -0.4653
vn -0.0511 0.8837 0.4653
vn -0.0000 -0.8387 -0.5446
vn -0.0000 -0.7700 0.6381
vn -0.0000 0.7700 -0.6381
vn -0.0000 0.8387 0.5446
vn 0.0316 0.9364 0.3496
vn -0.0207 -0.6128 0.7900
vn -0.0316 -0.9364 -0.3496
vn 0.0207 0.6128 -0.7900
vn -0.9994 0.0337 -0.0000
vn 0.9994 -0.0337 -0.0000
vn -0.9993 0.0347 0.0109
vn -0.0250 -0.8736 0.4860
vn 0.0327 0.7239 0.6892
vn 0.0250 0.8736 -0.4860
vn 0.9993 -0.0347 -0.0109
vn -0.0327 -0.7238 -0.6892
vn 0.0134 0.9291 0.3696
vn -0.0091 -0.6299 0.7766
vn -0.0134 -0.9291 -0.3696
vn 0.0091 0.6299 -0.7766
vn -0.9999 0.0144 -0.0000
vn 0.9999 -0.0144 -0.0000
vn 0.0190 -0.9998 -0.0000
vn 0.0057 -0.2982 0.9545
vn 0.9998 0.0190 -0.0000
vn -0.0057 0.2982 -0.9545
vn -0.0190 0.9998 -0.0000
vn -0.9998 -0.0190 -0.0000
vn 0.9999 -0.0169 -0.0000
vn -0.0050 -0.2982 0.9545
vn -0.9999 0.0169 -0.0000
vn 0.0050 0.2982 -0.9545
vn -0.0169 -0.9999 -0.0000
vn 0.0169 0.9999 -0.0000
vn -0.9999 -0.0120 -0.0001
vn 0.0099 -0.8339 0.5518
vn -0.0094 0.7754 0.6315
vn -0.0099 0.8339 -0.5518
vn 0.9999 0.0120 0.0001
vn 0.0094 -0.7754 -0.6315
vn -0.0120 0.9243 0.3816
vn 0.0083 -0.6399 0.7685
vn 0.0120 -0.9243 -0.3816
vn -0.0083 0.6399 -0.7685
vn -0.9999 -0.0130 -0.0000
vn 0.9999 0.0130 -0.0000
vn -0.9991 -0.0431 -0.0000
vn 0.0366 -0.8487 0.5277
vn -0.0326 0.7563 0.6534
vn -0.0366 0.8487 -0.5277
vn 0.9991 0.0431 -0.0000
vn 0.0326 -0.7563 -0.6534
vn -0.0000 -0.7762 0.6305
vn -0.0000 0.7809 -0.6247
vn -0.0000 -0.5563 -0.8310
vn -0.0000 0.8313 0.5558
vn 0.0039 -0.2982 0.9545
vn -0.0130 0.9999 -0.0000
vn -0.0039 0.2982 -0.9545
vn 0.0130 -0.9999 -0.0000
vn -0.0000 0.6388 0.7694
vn -0.0000 -0.9249 0.3802
vn -0.0000 -0.6388 -0.7694
vn -0.0000 0.9249 -0.3802
vn -0.0291 -0.6381 -0.7694
vn -0.0422 -0.9239 0.3802
vn 0.9990 -0.0456 -0.0000
vn 0.0422 0.9239 -0.3802
vn 0.0291 0.6381 0.7694
vn -0.9990 0.0456 -0.0000
vn -0.0000 -0.0000 1.0000
vn -0.0000 -0.0000 -1.0000
vt 0.000000 0.937500
vt 0.000000 1.000000
vt 0.031250 1.000000
vt 0.031250 0.937500
vt 1.000000 1.000000
vt 1.000000 0.937500
vt 0.968750 1.000000
vt 0.968750 0.937500
vt 1.000000 0.843750
vt 1.000000 0.906250
vt 0.000000 0.906250
vt 0.000000 0.843750
vt 1.000000 0.812500
vt 0.000000 0.812500
vt 0.000000 0.375000
vt 0.000000 0.437500
vt 0.031250 0.437500
vt 0.031250 0.375000
vt 1.000000 0.437500
vt 1.000000 0.375000
vt 0.968750 0.437500
vt 0.968750 0.375000
vt 1.000000 0.281250
vt 1.000000 0.343750
vt 0.000000 0.343750
vt 0.000000 0.281250
vt 1.000000 0.250000
vt 0.000000 0.250000
vt 0.000000 0.093750
vt 1.000000 0.093750
vt 1.000000 0.062500
vt 0.000000 0.062500
vt 0.000000 0.187500
vt 1.000000 0.187500
vt 0.031250 0.250000
vt 0.031250 0.187500
vt 1.000000 0.156250
vt 0.000000 0.156250
vt 0.968750 0.250000
vt 0.968750 0.187500
vt 1.000000 0.562500
vt 1.000000 0.625000
vt 0.968750 0.625000
vt 0.968750 0.562500
vt 0.000000 0.562500
vt 0.000000 0.625000
vt 0.000000 0.531250
vt 1.000000 0.531250
vt 1.000000 0.468750
vt 0.000000 0.468750
vt 0.031250 0.625000
vt 0.031250 0.562500
vt 0.031250 0.437500
vt 0.031250 0.375000
vt 0.000000 0.656250
vt 1.000000 0.656250
vt 0.000000 0.750000
vt 1.000000 0.750000
vt 0.031250 0.812500
vt 0.031250 0.750000
vt 1.000000 0.718750
vt 0.000000 0.718750
vt 0.968750 0.812500
vt 0.968750 0.750000
vt 0.031250 -0.000000
vt 0.062500 1.000000
vt 0.062500 -0.000000
vt 0.000000 -0.000000
vt 0.125000 -0.000000
vt 0.125000 1.000000
vt 0.093750 1.000000
vt 0.093750 -0.000000
vt 0.156250 1.000000
vt 0.156250 0.968750
vt 0.125000 0.968750
vt 0.125000 0.937500
vt 0.156250 0.937500
vt 0.906250 0.000000
vt 0.906250 1.000000
vt 0.937500 1.000000
vt 0.937500 0.000000
vt 0.875000 0.000000
vt 0.875000 1.000000
vt 1.000000 0.000000
vt 0.968750 0.000000
vt 0.843750 1.000000
vt 0.875000 0.968750
vt 0.843750 0.968750
vt 0.843750 0.937500
vt 0.875000 0.937500
s 0
f 1/1/1 2/2/1 4/3/1 3/4/1
f 3/1/2 4/2/2 8/5/2 7/6/2
f 7/6/3 8/5/3 6/7/3 5/8/3
f 5/9/4 6/10/4 2/11/4 1/12/4
f 3/12/5 7/9/5 5/13/5 1/14/5
f 8/6/6 4/1/6 2/11/6 6/10/6
f 9/15/7 10/16/7 12/17/7 11/18/7
f 11/15/8 12/16/8 16/19/8 15/20/8
f 15/20/9 16/19/9 14/21/9 13/22/9
f 13/23/10 14/24/10 10/25/10 9/26/10
f 11/26/11 15/23/11 13/27/11 9/28/11
f 16/20/12 12/15/12 10/25/12 14/24/12
f 22/29/13 18/30/13 20/31/13 24/32/13
f 22/33/14 21/28/14 17/27/14 18/34/14
f 24/33/1 23/28/1 21/35/1 22/36/1
f 20/30/15 19/37/15 23/38/15 24/29/15
f 17/34/16 21/33/16 23/38/16 19/37/16
f 18/34/3 17/27/3 19/39/3 20/40/3
f 32/6/17 28/1/17 26/11/17 30/10/17
f 27/1/18 28/2/18 32/5/18 31/6/18
f 27/12/19 31/9/19 29/13/19 25/14/19
f 29/9/20 30/10/20 26/11/20 25/12/20
f 31/6/21 32/5/21 30/7/21 29/8/21
f 25/1/22 26/2/22 28/3/22 27/4/22
f 34/41/23 33/42/23 35/43/23 36/44/23
f 38/45/24 37/46/24 33/42/24 34/41/24
f 33/41/25 37/45/25 39/47/25 35/48/25
f 36/49/26 35/48/26 39/47/26 40/50/26
f 40/45/27 39/46/27 37/51/27 38/52/27
f 38/50/28 34/49/28 36/19/28 40/16/28
f 48/20/29 44/15/29 42/25/29 46/24/29
f 43/15/30 44/16/30 48/19/30 47/20/30
f 43/26/31 47/23/31 45/27/31 41/28/31
f 45/23/32 46/24/32 42/25/32 41/26/32
f 47/20/33 48/19/33 46/21/33 45/22/33
f 41/15/34 42/16/34 44/53/34 43/54/34
f 54/55/35 50/56/35 52/42/35 56/46/35
f 54/57/36 53/14/36 49/13/36 50/58/36
f 56/57/37 55/14/37 53/59/37 54/60/37
f 52/56/38 51/61/38 55/62/38 56/55/38
f 49/58/39 53/57/39 55/62/39 51/61/39
f 50/58/40 49/13/40 51/63/40 52/64/40
f 57/1/41 58/2/41 60/3/41 59/4/41
f 59/1/42 60/2/42 64/5/42 63/6/42
f 63/6/43 64/5/43 62/7/43 61/8/43
f 61/9/44 62/10/44 58/11/44 57/12/44
f 59/12/45 63/9/45 61/13/45 57/14/45
f 64/6/46 60/1/46 58/11/46 62/10/46
f 66/34/47 65/27/47 67/39/47 68/40/47
f 70/33/48 69/28/48 65/27/48 66/34/48
f 65/34/49 69/33/49 71/38/49 67/37/49
f 68/30/50 67/37/50 71/38/50 72/29/50
f 72/33/51 71/28/51 69/35/51 70/36/51
f 70/29/52 66/30/52 68/31/52 72/32/52
f 80/6/53 76/1/53 74/11/53 78/10/53
f 75/1/54 76/2/54 80/5/54 79/6/54
f 75/12/55 79/9/55 77/13/55 73/14/55
f 77/9/56 78/10/56 74/11/56 73/12/56
f 79/6/57 80/5/57 78/7/57 77/8/57
f 73/1/58 74/2/58 76/3/58 75/4/58
f 82/58/59 81/13/59 83/63/59 84/64/59
f 86/57/60 85/14/60 81/13/60 82/58/60
f 81/58/61 85/57/61 87/62/61 83/61/61
f 84/56/62 83/61/62 87/62/62 88/55/62
f 88/57/63 87/14/63 85/59/63 86/60/63
f 86/55/64 82/56/64 84/42/64 88/46/64
f 89/45/1 90/46/1 92/51/1 91/52/1
f 91/45/65 92/46/65 96/42/65 95/41/65
f 95/41/3 96/42/3 94/43/3 93/44/3
f 93/49/66 94/48/66 90/47/66 89/50/66
f 91/50/67 95/49/67 93/19/67 89/16/67
f 96/41/68 92/45/68 90/47/68 94/48/68
f 102/29/5 98/30/5 100/31/5 104/32/5
f 102/33/2 101/28/2 97/27/2 98/34/2
f 104/33/1 103/28/1 101/35/1 102/36/1
f 100/30/4 99/37/4 103/38/4 104/29/4
f 97/34/6 101/33/6 103/38/6 99/37/6
f 98/34/3 97/27/3 99/39/3 100/40/3
f 106/20/57 105/19/57 107/21/57 108/22/57
f 110/15/69 109/16/69 105/19/69 106/20/69
f 105/20/70 109/15/70 111/25/70 107/24/70
f 108/23/71 107/24/71 111/25/71 112/26/71
f 112/15/58 111/16/58 109/53/58 110/54/58
f 110/26/72 106/23/72 108/27/72 112/28/72
f 120/41/73 116/45/73 114/47/73 118/48/73
f 115/45/74 116/46/74 120/42/74 119/41/74
f 115/50/75 119/49/75 117/19/75 113/16/75
f 117/49/76 118/48/76 114/47/76 113/50/76
f 119/41/3 120/42/3 118/43/3 117/44/3
f 113/45/1 114/46/1 116/51/1 115/52/1
f 126/55/77 122/56/77 124/42/77 128/46/77
f 126/57/78 125/14/78 121/13/78 122/58/78
f 128/57/79 127/14/79 125/59/79 126/60/79
f 124/56/80 123/61/80 127/62/80 128/55/80
f 121/58/81 125/57/81 127/62/81 123/61/81
f 122/58/82 121/13/82 123/63/82 124/64/82
f 129/65/1 130/3/1 132/66/1 131/67/1
f 131/68/83 132/2/83 136/3/83 135/65/83
f 135/69/3 136/70/3 134/71/3 133/72/3
f 133/72/84 134/71/84 130/66/84 129/67/84
f 131/70/5 135/73/5 133/74/5 129/75/5
f 136/74/6 132/75/6 130/76/6 134/77/6
f 137/78/1 138/79/1 140/80/1 139/81/1
f 139/82/83 140/83/83 144/79/83 143/78/83
f 143/84/3 144/5/3 142/7/3 141/85/3
f 141/85/84 142/7/84 138/80/84 137/81/84
f 139/86/5 143/83/5 141/87/5 137/88/5
f 144/87/6 140/88/6 138/89/6 142/90/6
