# Blender 3.4.1
# www.blender.org
o normal
v 0.500000 0.500000 -0.062500
v -0.500000 0.500000 -0.062500
v -0.500000 -0.500000 -0.062500
v 0.500000 -0.500000 -0.062500
v 0.437500 0.437500 -0.062500
v -0.437500 0.437500 -0.062500
v -0.437500 -0.437500 -0.062500
v 0.437500 -0.437500 -0.062500
v 0.031250 -0.437500 -0.031250
v 0.031250 0.437500 -0.031250
v -0.031250 -0.437500 -0.031250
v -0.031250 0.437500 -0.031250
v 0.500000 0.500000 0.062500
v -0.500000 0.500000 0.062500
v -0.500000 -0.500000 0.062500
v 0.500000 -0.500000 0.062500
v 0.437500 0.437500 0.062500
v -0.437500 0.437500 0.062500
v -0.437500 -0.437500 0.062500
v 0.437500 -0.437500 0.062500
v 0.031250 -0.437500 0.031250
v 0.031250 0.437500 0.031250
v -0.031250 -0.437500 0.031250
v -0.031250 0.437500 0.031250
v -0.437500 -0.031250 -0.031250
v -0.031250 -0.031250 -0.031250
v -0.437500 0.031250 -0.031250
v -0.031250 0.031250 -0.031250
v -0.437500 -0.031250 0.031250
v -0.031250 -0.031250 0.031250
v -0.437500 0.031250 0.031250
v -0.031250 0.031250 0.031250
v 0.031250 -0.031250 -0.031250
v 0.437500 -0.031250 -0.031250
v 0.031250 0.031250 -0.031250
v 0.437500 0.031250 -0.031250
v 0.031250 -0.031250 0.031250
v 0.437500 -0.031250 0.031250
v 0.031250 0.031250 0.031250
v 0.437500 0.031250 0.031250
vn -0.0000 -0.0000 -1.0000
vn -0.0000 -0.0000 1.0000
vn -1.0000 -0.0000 -0.0000
vn 1.0000 -0.0000 -0.0000
vn -0.0000 1.0000 -0.0000
vn -0.0000 -1.0000 -0.0000
vt 0.000000 1.000000
vt 0.000000 0.750000
vt 1.000000 1.000000
vt 0.000000 1.000000
vt 1.000000 0.750000
vt 1.000000 0.000000
vt 0.000000 0.000000
vt 1.000000 0.750000
vt 0.000000 0.750000
vt 0.000000 0.000000
vt 0.062500 0.937500
vt 0.000000 0.937500
vt 0.062500 0.750000
vt 0.937500 0.937500
vt 0.937500 0.750000
vt 0.000000 0.937500
vt 0.937500 0.062500
vt 0.937500 0.750000
vt 0.000000 0.062500
vt 0.062500 0.062500
vt 0.062500 0.750000
vt 0.000000 0.062500
vt 0.875000 0.062500
vt 0.875000 0.937500
vt 0.937500 0.062500
vt 0.875000 0.062500
vt 0.937500 0.937500
vt 0.875000 0.937500
vt 0.250000 1.000000
vt 0.000000 1.000000
vt 0.250000 1.000000
vt 1.000000 1.000000
vt 1.000000 0.000000
vt 0.250000 0.000000
vt 1.000000 1.000000
vt 0.000000 0.000000
vt 0.000000 1.000000
vt 0.250000 0.000000
vt 0.062500 0.937500
vt 0.250000 0.937500
vt 0.062500 1.000000
vt 0.937500 0.937500
vt 0.937500 1.000000
vt 0.250000 0.937500
vt 0.937500 0.062500
vt 0.937500 1.000000
vt 0.250000 0.062500
vt 0.062500 0.062500
vt 0.062500 1.000000
vt 0.250000 0.062500
vt 0.875000 0.062500
vt 0.937500 0.062500
vt 0.875000 0.937500
vt 0.937500 0.937500
vt 0.937500 0.062500
vt 0.937500 0.937500
vt 0.312500 0.343750
vt 0.437500 0.343750
vt 0.312500 0.750000
vt 0.437500 0.750000
vt 0.375000 0.343750
vt 0.500000 0.343750
vt 0.375000 0.750000
vt 0.500000 0.750000
vt 0.375000 0.343750
vt 0.500000 0.343750
vt 0.375000 0.750000
vt 0.500000 0.750000
vt 0.437500 0.343750
vt 0.562500 0.343750
vt 0.437500 0.750000
vt 0.562500 0.750000
vt 0.562500 0.343750
vt 0.687500 0.343750
vt 0.562500 0.750000
vt 0.687500 0.750000
vt 0.625000 0.343750
vt 0.250000 0.343750
vt 0.625000 0.750000
vt 0.250000 0.750000
vt 0.625000 0.343750
vt 0.750000 0.343750
vt 0.625000 0.750000
vt 0.750000 0.750000
vt 0.687500 0.343750
vt 0.312500 0.343750
vt 0.687500 0.750000
vt 0.312500 0.750000
s 0
f 9/23/1 11/25/1 12/27/1 10/24/1
f 5/11/1 6/14/1 2/3/1 1/1/1
f 6/14/1 7/17/1 3/6/1 2/3/1
f 7/17/1 8/20/1 4/10/1 3/6/1
f 8/20/1 5/11/1 1/1/1 4/10/1
f 21/51/2 22/53/2 24/56/2 23/55/2
f 17/39/2 13/30/2 14/32/2 18/42/2
f 18/42/2 14/32/2 15/33/2 19/45/2
f 19/45/2 15/33/2 16/36/2 20/48/2
f 20/48/2 16/36/2 13/30/2 17/39/2
f 3/7/3 15/34/3 14/31/3 2/4/3
f 9/23/4 10/24/4 22/54/4 21/52/4
f 7/18/5 19/46/5 20/49/5 8/21/5
f 4/9/6 16/37/6 15/35/6 3/8/6
f 12/28/3 11/26/3 23/55/3 24/56/3
f 8/22/3 20/50/3 17/40/3 5/12/3
f 5/13/6 17/41/6 18/43/6 6/15/6
f 1/1/4 13/29/4 16/38/4 4/10/4
f 2/5/5 14/32/5 13/30/5 1/2/5
f 6/16/4 18/44/4 19/47/4 7/19/4
f 25/57/1 27/61/1 28/63/1 26/59/1
f 29/65/2 30/67/2 32/71/2 31/69/2
f 25/58/6 26/60/6 30/68/6 29/66/6
f 28/64/5 27/62/5 31/70/5 32/72/5
f 33/73/1 35/77/1 36/79/1 34/75/1
f 37/81/2 38/83/2 40/87/2 39/85/2
f 33/74/6 34/76/6 38/84/6 37/82/6
f 36/80/5 35/78/5 39/86/5 40/88/5
