# Blender 3.6.23
# www.blender.org
o blinds_2x2
v 0.500000 0.400000 0.825000
v 0.500000 0.500000 0.856250
v 0.500000 0.400000 0.843750
v 0.500000 0.500000 0.875000
v -1.500000 0.400000 0.825000
v -1.500000 0.500000 0.856250
v -1.500000 0.400000 0.843750
v -1.500000 0.500000 0.875000
v 0.500000 -1.225000 0.825000
v 0.500000 -1.125000 0.856250
v 0.500000 -1.225000 0.843750
v 0.500000 -1.125000 0.875000
v -1.500000 -1.225000 0.825000
v -1.500000 -1.125000 0.856250
v -1.500000 -1.225000 0.843750
v -1.500000 -1.125000 0.875000
v -1.500000 -1.250000 0.875000
v -1.500000 -1.350000 0.843750
v -1.500000 -1.250000 0.856250
v -1.500000 -1.350000 0.825000
v 0.500000 -1.250000 0.875000
v 0.500000 -1.350000 0.843750
v 0.500000 -1.250000 0.856250
v 0.500000 -1.350000 0.825000
v 0.500000 -1.475000 0.825000
v 0.500000 -1.375000 0.856250
v 0.500000 -1.475000 0.843750
v 0.500000 -1.375000 0.875000
v -1.500000 -1.475000 0.825000
v -1.500000 -1.375000 0.856250
v -1.500000 -1.475000 0.843750
v -1.500000 -1.375000 0.875000
v -1.500000 -1.000000 0.875000
v -1.500000 -1.100000 0.843750
v -1.500000 -1.000000 0.856250
v -1.500000 -1.100000 0.825000
v 0.500000 -1.000000 0.875000
v 0.500000 -1.100000 0.843750
v 0.500000 -1.000000 0.856250
v 0.500000 -1.100000 0.825000
v 0.500000 -0.600000 0.825000
v 0.500000 -0.500000 0.856250
v 0.500000 -0.600000 0.843750
v 0.500000 -0.500000 0.875000
v -1.500000 -0.600000 0.825000
v -1.500000 -0.500000 0.856250
v -1.500000 -0.600000 0.843750
v -1.500000 -0.500000 0.875000
v -1.500000 -0.875000 0.875000
v -1.500000 -0.975000 0.843750
v -1.500000 -0.875000 0.856250
v -1.500000 -0.975000 0.825000
v 0.500000 -0.875000 0.875000
v 0.500000 -0.975000 0.843750
v 0.500000 -0.875000 0.856250
v 0.500000 -0.975000 0.825000
v 0.500000 -0.850000 0.825000
v 0.500000 -0.750000 0.856250
v 0.500000 -0.850000 0.843750
v 0.500000 -0.750000 0.875000
v -1.500000 -0.850000 0.825000
v -1.500000 -0.750000 0.856250
v -1.500000 -0.850000 0.843750
v -1.500000 -0.750000 0.875000
v -1.500000 -0.625000 0.875000
v -1.500000 -0.725000 0.843750
v -1.500000 -0.625000 0.856250
v -1.500000 -0.725000 0.825000
v 0.500000 -0.625000 0.875000
v 0.500000 -0.725000 0.843750
v 0.500000 -0.625000 0.856250
v 0.500000 -0.725000 0.825000
v 0.500000 -0.225000 0.825000
v 0.500000 -0.125000 0.856250
v 0.500000 -0.225000 0.843750
v 0.500000 -0.125000 0.875000
v -1.500000 -0.225000 0.825000
v -1.500000 -0.125000 0.856250
v -1.500000 -0.225000 0.843750
v -1.500000 -0.125000 0.875000
v -1.500000 -0.250000 0.875000
v -1.500000 -0.350000 0.843750
v -1.500000 -0.250000 0.856250
v -1.500000 -0.350000 0.825000
v 0.500000 -0.250000 0.875000
v 0.500000 -0.350000 0.843750
v 0.500000 -0.250000 0.856250
v 0.500000 -0.350000 0.825000
v 0.500000 -0.475000 0.825000
v 0.500000 -0.375000 0.856250
v 0.500000 -0.475000 0.843750
v 0.500000 -0.375000 0.875000
v -1.500000 -0.475000 0.825000
v -1.500000 -0.375000 0.856250
v -1.500000 -0.475000 0.843750
v -1.500000 -0.375000 0.875000
v -1.500000 0.000000 0.875000
v -1.500000 -0.100000 0.843750
v -1.500000 0.000000 0.856250
v -1.500000 -0.100000 0.825000
v 0.500000 0.000000 0.875000
v 0.500000 -0.100000 0.843750
v 0.500000 0.000000 0.856250
v 0.500000 -0.100000 0.825000
v -1.500000 0.125000 0.875000
v -1.500000 0.025000 0.843750
v -1.500000 0.125000 0.856250
v -1.500000 0.025000 0.825000
v 0.500000 0.125000 0.875000
v 0.500000 0.025000 0.843750
v 0.500000 0.125000 0.856250
v 0.500000 0.025000 0.825000
v 0.500000 0.150000 0.825000
v 0.500000 0.250000 0.856250
v 0.500000 0.150000 0.843750
v 0.500000 0.250000 0.875000
v -1.500000 0.150000 0.825000
v -1.500000 0.250000 0.856250
v -1.500000 0.150000 0.843750
v -1.500000 0.250000 0.875000
v -1.500000 0.375000 0.875000
v -1.500000 0.275000 0.843750
v -1.500000 0.375000 0.856250
v -1.500000 0.275000 0.825000
v 0.500000 0.375000 0.875000
v 0.500000 0.275000 0.843750
v 0.500000 0.375000 0.856250
v 0.500000 0.275000 0.825000
v 0.262500 -1.500000 0.862500
v 0.262500 0.500000 0.862500
v 0.262500 -1.500000 0.887500
v 0.262500 0.500000 0.887500
v 0.237500 -1.500000 0.862500
v 0.237500 0.500000 0.862500
v 0.237500 -1.500000 0.887500
v 0.237500 0.500000 0.887500
v -1.237500 -1.500000 0.862500
v -1.237500 0.500000 0.862500
v -1.237500 -1.500000 0.887500
v -1.237500 0.500000 0.887500
v -1.262500 -1.500000 0.862500
v -1.262500 0.500000 0.862500
v -1.262500 -1.500000 0.887500
v -1.262500 0.500000 0.887500
vn 1.0000 -0.0000 -0.0000
vn -0.0000 -0.2983 0.9545
vn -1.0000 -0.0000 -0.0000
vn -0.0000 0.2983 -0.9545
vn -0.0000 -1.0000 -0.0000
vn -0.0000 1.0000 -0.0000
vn -0.0000 -0.0000 1.0000
vn -0.0000 -0.0000 -1.0000
vt 0.000000 0.937500
vt 0.000000 1.000000
vt 0.031250 1.000000
vt 0.031250 0.937500
vt 1.000000 1.000000
vt 1.000000 0.937500
vt 0.968750 1.000000
vt 0.968750 0.937500
vt 1.000000 0.843750
vt 1.000000 0.906250
vt 0.000000 0.906250
vt 0.000000 0.843750
vt 1.000000 0.812500
vt 0.000000 0.812500
vt 0.000000 0.375000
vt 0.000000 0.437500
vt 0.031250 0.437500
vt 0.031250 0.375000
vt 1.000000 0.437500
vt 1.000000 0.375000
vt 0.968750 0.437500
vt 0.968750 0.375000
vt 1.000000 0.281250
vt 1.000000 0.343750
vt 0.000000 0.343750
vt 0.000000 0.281250
vt 1.000000 0.250000
vt 0.000000 0.250000
vt 0.000000 0.093750
vt 1.000000 0.093750
vt 1.000000 0.062500
vt 0.000000 0.062500
vt 0.000000 0.187500
vt 1.000000 0.187500
vt 0.031250 0.250000
vt 0.031250 0.187500
vt 1.000000 0.156250
vt 0.000000 0.156250
vt 0.968750 0.250000
vt 0.968750 0.187500
vt 1.000000 0.562500
vt 1.000000 0.625000
vt 0.968750 0.625000
vt 0.968750 0.562500
vt 0.000000 0.562500
vt 0.000000 0.625000
vt 0.000000 0.531250
vt 1.000000 0.531250
vt 1.000000 0.468750
vt 0.000000 0.468750
vt 0.031250 0.625000
vt 0.031250 0.562500
vt 0.031250 0.437500
vt 0.031250 0.375000
vt 0.000000 0.656250
vt 1.000000 0.656250
vt 0.000000 0.750000
vt 1.000000 0.750000
vt 0.031250 0.812500
vt 0.031250 0.750000
vt 1.000000 0.718750
vt 0.000000 0.718750
vt 0.968750 0.812500
vt 0.968750 0.750000
vt 0.031250 -0.000000
vt 0.062500 1.000000
vt 0.062500 -0.000000
vt 0.000000 -0.000000
vt 0.125000 -0.000000
vt 0.125000 1.000000
vt 0.093750 1.000000
vt 0.093750 -0.000000
vt 0.156250 1.000000
vt 0.156250 0.968750
vt 0.125000 0.968750
vt 0.125000 0.937500
vt 0.156250 0.937500
vt 0.906250 0.000000
vt 0.906250 1.000000
vt 0.937500 1.000000
vt 0.937500 0.000000
vt 0.875000 0.000000
vt 0.875000 1.000000
vt 1.000000 0.000000
vt 0.968750 0.000000
vt 0.843750 1.000000
vt 0.875000 0.968750
vt 0.843750 0.968750
vt 0.843750 0.937500
vt 0.875000 0.937500
s 0
f 1/1/1 2/2/1 4/3/1 3/4/1
f 3/1/2 4/2/2 8/5/2 7/6/2
f 7/6/3 8/5/3 6/7/3 5/8/3
f 5/9/4 6/10/4 2/11/4 1/12/4
f 3/12/5 7/9/5 5/13/5 1/14/5
f 8/6/6 4/1/6 2/11/6 6/10/6
f 9/15/1 10/16/1 12/17/1 11/18/1
f 11/15/2 12/16/2 16/19/2 15/20/2
f 15/20/3 16/19/3 14/21/3 13/22/3
f 13/23/4 14/24/4 10/25/4 9/26/4
f 11/26/5 15/23/5 13/27/5 9/28/5
f 16/20/6 12/15/6 10/25/6 14/24/6
f 22/29/5 18/30/5 20/31/5 24/32/5
f 22/33/2 21/28/2 17/27/2 18/34/2
f 24/33/1 23/28/1 21/35/1 22/36/1
f 20/30/4 19/37/4 23/38/4 24/29/4
f 17/34/6 21/33/6 23/38/6 19/37/6
f 18/34/3 17/27/3 19/39/3 20/40/3
f 32/6/6 28/1/6 26/11/6 30/10/6
f 27/1/2 28/2/2 32/5/2 31/6/2
f 27/12/5 31/9/5 29/13/5 25/14/5
f 29/9/4 30/10/4 26/11/4 25/12/4
f 31/6/3 32/5/3 30/7/3 29/8/3
f 25/1/1 26/2/1 28/3/1 27/4/1
f 34/41/3 33/42/3 35/43/3 36/44/3
f 38/45/2 37/46/2 33/42/2 34/41/2
f 33/41/6 37/45/6 39/47/6 35/48/6
f 36/49/4 35/48/4 39/47/4 40/50/4
f 40/45/1 39/46/1 37/51/1 38/52/1
f 38/50/5 34/49/5 36/19/5 40/16/5
f 48/20/6 44/15/6 42/25/6 46/24/6
f 43/15/2 44/16/2 48/19/2 47/20/2
f 43/26/5 47/23/5 45/27/5 41/28/5
f 45/23/4 46/24/4 42/25/4 41/26/4
f 47/20/3 48/19/3 46/21/3 45/22/3
f 41/15/1 42/16/1 44/53/1 43/54/1
f 54/55/5 50/56/5 52/42/5 56/46/5
f 54/57/2 53/14/2 49/13/2 50/58/2
f 56/57/1 55/14/1 53/59/1 54/60/1
f 52/56/4 51/61/4 55/62/4 56/55/4
f 49/58/6 53/57/6 55/62/6 51/61/6
f 50/58/3 49/13/3 51/63/3 52/64/3
f 57/1/1 58/2/1 60/3/1 59/4/1
f 59/1/2 60/2/2 64/5/2 63/6/2
f 63/6/3 64/5/3 62/7/3 61/8/3
f 61/9/4 62/10/4 58/11/4 57/12/4
f 59/12/5 63/9/5 61/13/5 57/14/5
f 64/6/6 60/1/6 58/11/6 62/10/6
f 66/34/3 65/27/3 67/39/3 68/40/3
f 70/33/2 69/28/2 65/27/2 66/34/2
f 65/34/6 69/33/6 71/38/6 67/37/6
f 68/30/4 67/37/4 71/38/4 72/29/4
f 72/33/1 71/28/1 69/35/1 70/36/1
f 70/29/5 66/30/5 68/31/5 72/32/5
f 80/6/6 76/1/6 74/11/6 78/10/6
f 75/1/2 76/2/2 80/5/2 79/6/2
f 75/12/5 79/9/5 77/13/5 73/14/5
f 77/9/4 78/10/4 74/11/4 73/12/4
f 79/6/3 80/5/3 78/7/3 77/8/3
f 73/1/1 74/2/1 76/3/1 75/4/1
f 82/58/3 81/13/3 83/63/3 84/64/3
f 86/57/2 85/14/2 81/13/2 82/58/2
f 81/58/6 85/57/6 87/62/6 83/61/6
f 84/56/4 83/61/4 87/62/4 88/55/4
f 88/57/1 87/14/1 85/59/1 86/60/1
f 86/55/5 82/56/5 84/42/5 88/46/5
f 89/45/1 90/46/1 92/51/1 91/52/1
f 91/45/2 92/46/2 96/42/2 95/41/2
f 95/41/3 96/42/3 94/43/3 93/44/3
f 93/49/4 94/48/4 90/47/4 89/50/4
f 91/50/5 95/49/5 93/19/5 89/16/5
f 96/41/6 92/45/6 90/47/6 94/48/6
f 102/29/5 98/30/5 100/31/5 104/32/5
f 102/33/2 101/28/2 97/27/2 98/34/2
f 104/33/1 103/28/1 101/35/1 102/36/1
f 100/30/4 99/37/4 103/38/4 104/29/4
f 97/34/6 101/33/6 103/38/6 99/37/6
f 98/34/3 97/27/3 99/39/3 100/40/3
f 106/20/3 105/19/3 107/21/3 108/22/3
f 110/15/2 109/16/2 105/19/2 106/20/2
f 105/20/6 109/15/6 111/25/6 107/24/6
f 108/23/4 107/24/4 111/25/4 112/26/4
f 112/15/1 111/16/1 109/53/1 110/54/1
f 110/26/5 106/23/5 108/27/5 112/28/5
f 120/41/6 116/45/6 114/47/6 118/48/6
f 115/45/2 116/46/2 120/42/2 119/41/2
f 115/50/5 119/49/5 117/19/5 113/16/5
f 117/49/4 118/48/4 114/47/4 113/50/4
f 119/41/3 120/42/3 118/43/3 117/44/3
f 113/45/1 114/46/1 116/51/1 115/52/1
f 126/55/5 122/56/5 124/42/5 128/46/5
f 126/57/2 125/14/2 121/13/2 122/58/2
f 128/57/1 127/14/1 125/59/1 126/60/1
f 124/56/4 123/61/4 127/62/4 128/55/4
f 121/58/6 125/57/6 127/62/6 123/61/6
f 122/58/3 121/13/3 123/63/3 124/64/3
f 129/65/1 130/3/1 132/66/1 131/67/1
f 131/68/7 132/2/7 136/3/7 135/65/7
f 135/69/3 136/70/3 134/71/3 133/72/3
f 133/72/8 134/71/8 130/66/8 129/67/8
f 131/70/5 135/73/5 133/74/5 129/75/5
f 136/74/6 132/75/6 130/76/6 134/77/6
f 137/78/1 138/79/1 140/80/1 139/81/1
f 139/82/7 140/83/7 144/79/7 143/78/7
f 143/84/3 144/5/3 142/7/3 141/85/3
f 141/85/8 142/7/8 138/80/8 137/81/8
f 139/86/5 143/83/5 141/87/5 137/88/5
f 144/87/6 140/88/6 138/89/6 142/90/6
