# Blender 3.4.1
# www.blender.org
o right_open_3
v -0.500000 -1.500001 -0.250000
v -0.500000 1.500000 -0.250000
v -0.375000 -1.500001 -0.250000
v -0.375000 1.500000 -0.250000
v -0.500000 -1.500001 1.750000
v -0.500000 1.500000 1.750000
v -0.375000 -1.500001 1.750000
v -0.375000 1.500000 1.750000
v -0.375000 0.374999 1.625000
v -0.312500 0.250000 1.625000
v -0.312500 0.374999 1.625000
v -0.562500 0.250000 1.500000
v -0.375000 0.250000 1.500000
v -0.500000 0.374999 1.625000
v -0.500000 0.250000 1.625000
v -0.562500 0.374999 1.625000
v -0.562500 0.250000 1.625000
v -0.500000 0.374999 1.500000
v -0.500000 0.250000 1.500000
v -0.562500 0.374999 1.500000
v -0.375000 0.374999 1.500000
v -0.312500 0.250000 1.500000
v -0.312500 0.374999 1.500000
v -0.375000 0.250000 1.625000
v -0.375000 -1.500001 -0.250000
v -0.375000 1.500000 -0.250000
v -0.375000 -1.500001 1.750000
v -0.375000 1.500000 1.750000
v -0.375000 -1.500001 0.937500
v -0.375000 1.500000 0.937500
v -0.375000 1.500000 1.312500
v -0.375000 -1.500001 1.312500
v -0.375000 1.250000 -0.250000
v -0.375000 1.250000 1.750000
v -0.375000 1.250000 0.937500
v -0.375000 1.250000 1.312500
v -0.375000 -0.687501 -0.250000
v -0.375000 -0.687501 1.750000
v -0.375000 -0.687501 0.937500
v -0.375000 -0.687501 1.312500
v -0.500000 -1.500001 -0.250000
v -0.500000 1.500000 -0.250000
v -0.500000 -1.500001 1.750000
v -0.500000 1.500000 1.750000
v -0.500000 -1.500001 0.937500
v -0.500000 1.500000 0.937500
v -0.500000 1.500000 1.312500
v -0.500000 -1.500001 1.312500
v -0.500000 1.250000 -0.250000
v -0.500000 1.250000 1.750000
v -0.500000 1.250000 0.937500
v -0.500000 1.250000 1.312500
v -0.500000 -0.687501 -0.250000
v -0.500000 -0.687501 1.750000
v -0.500000 -0.687501 0.937500
v -0.500000 -0.687501 1.312500
v -0.506250 1.250000 0.937500
v -0.506250 1.250000 0.875000
v -0.506250 -0.687501 0.937500
v -0.506250 -0.687501 0.875000
v -0.506250 -0.750001 0.937500
v -0.506250 -0.750001 0.875000
v -0.506250 1.312500 0.937500
v -0.506250 1.312500 0.875000
v -0.506250 1.250000 1.312500
v -0.506250 1.312500 1.312500
v -0.506250 1.250000 1.375000
v -0.506250 1.312500 1.375000
v -0.506250 -0.687501 1.312500
v -0.506250 -0.750001 1.312500
v -0.506250 -0.687501 1.375000
v -0.506250 -0.750001 1.375000
v -0.368750 1.250000 0.937500
v -0.368750 1.250000 0.875000
v -0.368750 -0.687501 0.937500
v -0.368750 -0.687501 0.875000
v -0.368750 -0.750001 0.937500
v -0.368750 -0.750001 0.875000
v -0.368750 1.312500 0.937500
v -0.368750 1.312500 0.875000
v -0.368750 1.250000 1.312500
v -0.368750 1.312500 1.312500
v -0.368750 1.250000 1.375000
v -0.368750 1.312500 1.375000
v -0.368750 -0.687501 1.312500
v -0.368750 -0.750001 1.312500
v -0.368750 -0.687501 1.375000
v -0.368750 -0.750001 1.375000
v -0.625000 0.250000 1.500000
v -0.625000 0.312500 1.625000
v -0.625000 0.250000 1.625000
v -0.625000 0.312500 1.500000
v -0.250000 0.250000 1.625000
v -0.250000 0.312500 1.625000
v -0.250000 0.250000 1.500000
v -0.250000 0.312500 1.500000
v -0.312500 -0.250001 1.625000
v -0.562500 -0.250001 1.500000
v -0.562500 -0.250001 1.625000
v -0.312500 -0.250001 1.500000
v -0.625000 -0.250001 1.500000
v -0.625000 -0.250001 1.625000
v -0.250000 -0.250001 1.625000
v -0.250000 -0.250001 1.500000
v -0.312500 -0.375001 1.625000
v -0.562500 -0.375001 1.500000
v -0.562500 -0.375001 1.625000
v -0.312500 -0.375001 1.500000
v -0.625000 -0.312501 1.500000
v -0.625000 -0.312501 1.625000
v -0.250000 -0.312501 1.625000
v -0.250000 -0.312501 1.500000
v -0.375000 -0.250001 1.625000
v -0.375000 -0.250001 1.500000
v -0.375000 -0.375001 1.625000
v -0.375000 -0.375001 1.500000
v -0.500000 -0.250001 1.500000
v -0.500000 -0.250001 1.625000
v -0.500000 -0.375001 1.500000
v -0.500000 -0.375001 1.625000
v -0.506250 1.250000 0.937500
v -0.506250 1.250000 1.312500
v -0.506250 -0.687501 0.937500
v -0.506250 -0.687501 1.312500
v -0.368750 1.250000 0.937500
v -0.368750 1.250000 1.312500
v -0.368750 -0.687501 0.937500
v -0.368750 -0.687501 1.312500
vn -0.0000 -0.0000 -1.0000
vn -0.0000 -0.0000 1.0000
vn 1.0000 -0.0000 -0.0000
vn -0.0000 1.0000 -0.0000
vn -0.0000 -1.0000 -0.0000
vn -1.0000 -0.0000 -0.0000
vn -0.7071 0.7071 -0.0000
vn 0.7071 0.7071 -0.0000
vn 0.7071 -0.7071 -0.0000
vn -0.7071 -0.7071 -0.0000
vt 0.000000 0.000000
vt 0.020833 0.000000
vt 0.000000 1.000000
vt 0.020833 0.958333
vt 0.020833 0.000000
vt 0.020833 0.041667
vt 0.020833 1.000000
vt 0.354167 0.000000
vt 0.354167 1.000000
vt 0.354167 0.958333
vt 0.375000 0.000000
vt 0.354167 0.041667
vt 0.375000 1.000000
vt 0.354167 1.000000
vt 0.885417 0.270833
vt 0.885417 0.166667
vt 0.885417 0.187500
vt 0.885417 0.229167
vt 0.895833 0.229167
vt 0.895833 0.270833
vt 0.885417 0.187500
vt 0.947917 0.104167
vt 0.937500 0.229167
vt 0.947917 0.229167
vt 0.885417 0.229167
vt 0.864583 0.166667
vt 0.968750 0.125000
vt 0.947917 0.270833
vt 0.968750 0.125000
vt 0.947917 0.229167
vt 0.937500 0.270833
vt 0.968750 0.104167
vt 0.968750 0.104167
vt 0.937500 0.229167
vt 0.968750 0.229167
vt 0.947917 0.125000
vt 0.947917 0.270833
vt 0.947917 0.125000
vt 0.947917 0.229167
vt 0.947917 0.104167
vt 0.937500 0.270833
vt 0.885417 0.270833
vt 0.864583 0.166667
vt 0.864583 0.187500
vt 0.895833 0.229167
vt 0.864583 0.229167
vt 0.895833 0.270833
vt 0.864583 0.187500
vt 0.885417 0.229167
vt 0.885417 0.166667
vt 0.708333 0.000000
vt 0.708333 1.000000
vt 0.375000 0.000000
vt 0.375000 1.000000
vt 0.510417 0.000000
vt 0.510417 1.000000
vt 0.447917 1.000000
vt 0.447917 0.000000
vt 0.708333 0.916667
vt 0.375000 0.916667
vt 0.510417 0.916667
vt 0.447917 0.916667
vt 0.708333 0.270833
vt 0.375000 0.270833
vt 0.510417 0.270833
vt 0.447917 0.270833
vt 0.020833 0.000000
vt 0.020833 1.000000
vt 0.354167 0.000000
vt 0.354167 1.000000
vt 0.218750 0.000000
vt 0.218750 1.000000
vt 0.281250 1.000000
vt 0.281250 0.000000
vt 0.020833 0.916667
vt 0.354167 0.916667
vt 0.218750 0.916667
vt 0.281250 0.916667
vt 0.020833 0.270833
vt 0.354167 0.270833
vt 0.218750 0.270833
vt 0.281250 0.270833
vt 0.927083 0.666667
vt 0.916667 0.666667
vt 0.927083 0.020833
vt 0.916667 0.020833
vt 0.927083 -0.000000
vt 0.916667 -0.000000
vt 0.927083 0.687500
vt 0.916667 0.687500
vt 0.989583 0.666667
vt 0.989583 0.687500
vt 1.000000 0.666667
vt 1.000000 0.687500
vt 0.989583 0.020833
vt 0.989583 -0.000000
vt 1.000000 0.020833
vt 1.000000 -0.000000
vt 0.843750 0.666667
vt 0.833333 0.666667
vt 0.843750 0.020833
vt 0.833333 0.020833
vt 0.843750 -0.000000
vt 0.833333 -0.000000
vt 0.843750 0.687500
vt 0.833333 0.687500
vt 0.906250 0.666667
vt 0.906250 0.687500
vt 0.916667 0.666667
vt 0.916667 0.687500
vt 0.906250 0.020833
vt 0.906250 -0.000000
vt 0.916667 0.020833
vt 0.916667 -0.000000
vt 0.927083 0.229167
vt 0.947917 0.229167
vt 0.927083 0.250000
vt 0.968750 0.250000
vt 0.968750 0.083333
vt 0.927083 0.229167
vt 0.968750 0.229167
vt 0.947917 0.250000
vt 0.947917 0.083333
vt 0.927083 0.250000
vt 0.885417 0.229167
vt 0.906250 0.229167
vt 0.885417 0.250000
vt 0.906250 0.250000
vt 0.885417 0.208333
vt 0.906250 0.229167
vt 0.864583 0.229167
vt 0.864583 0.250000
vt 0.906250 0.250000
vt 0.864583 0.208333
vt 0.885417 0.062500
vt 0.885417 0.187500
vt 0.895833 0.062500
vt 0.947917 0.062500
vt 0.937500 0.062500
vt 0.947917 0.104167
vt 0.968750 0.062500
vt 0.937500 0.062500
vt 0.968750 0.104167
vt 0.864583 0.062500
vt 0.864583 0.187500
vt 0.895833 0.062500
vt 0.927083 0.062500
vt 0.947917 0.062500
vt 0.968750 0.062500
vt 0.927083 0.062500
vt 0.906250 0.062500
vt 0.885417 0.062500
vt 0.864583 0.062500
vt 0.906250 0.062500
vt 0.885417 0.187500
vt 0.895833 0.020833
vt 0.937500 0.020833
vt 0.947917 0.104167
vt 0.937500 0.020833
vt 0.968750 0.104167
vt 0.864583 0.187500
vt 0.895833 0.020833
vt 0.947917 0.041667
vt 0.927083 0.041667
vt 0.947917 0.083333
vt 0.968750 0.041667
vt 0.968750 0.083333
vt 0.927083 0.041667
vt 0.885417 0.208333
vt 0.906250 0.041667
vt 0.885417 0.041667
vt 0.864583 0.208333
vt 0.864583 0.041667
vt 0.906250 0.041667
vt 0.885417 0.166667
vt 0.885417 0.062500
vt 0.864583 0.166667
vt 0.864583 0.062500
vt 0.885417 0.062500
vt 0.885417 0.166667
vt 0.885417 0.020833
vt 0.864583 0.020833
vt 0.864583 0.166667
vt 0.885417 0.020833
vt 0.947917 0.062500
vt 0.947917 0.125000
vt 0.968750 0.062500
vt 0.947917 0.062500
vt 0.968750 0.125000
vt 0.947917 0.020833
vt 0.947917 0.125000
vt 0.968750 0.020833
vt 0.947917 0.020833
vt 0.968750 0.125000
vt 0.770833 0.687500
vt 0.791667 0.645833
vt 0.833333 0.687500
vt 0.812500 0.645833
vt 0.770833 0.645833
vt 0.791667 0.000000
vt 0.833333 0.645833
vt 0.812500 0.000000
vt 0.770833 0.729167
vt 0.812500 0.645833
vt 0.833333 0.729167
vt 0.833333 0.645833
vt 0.770833 0.687500
vt 0.812500 0.000000
vt 0.833333 0.687500
vt 0.833333 0.000000
s 0
f 1/1/1 2/3/1 4/7/1 3/5/1
f 7/11/2 8/13/2 6/9/2 5/8/2
f 36/62/3 31/57/3 28/54/3 34/60/3
f 8/14/4 4/7/4 2/4/4 6/10/4
f 10/19/2 11/20/2 9/15/2 24/49/2
f 13/25/1 21/42/1 23/47/1 22/45/1
f 17/34/2 91/120/2 102/150/2 99/142/2
f 22/44/5 10/17/5 24/50/5 13/26/5
f 17/34/2 16/31/2 90/117/2 91/120/2
f 19/38/5 15/29/5 17/33/5 12/22/5
f 14/27/4 18/36/4 20/40/4 16/32/4
f 15/30/2 14/28/2 16/31/2 17/34/2
f 12/23/1 20/41/1 18/37/1 19/39/1
f 11/21/4 23/48/4 21/43/4 9/16/4
f 33/59/3 26/52/3 30/56/3 35/61/3
f 35/61/3 30/56/3 31/57/3 36/62/3
f 37/63/3 33/59/3 35/61/3 39/65/3
f 40/66/3 36/62/3 34/60/3 38/64/3
f 32/58/3 40/66/3 38/64/3 27/53/3
f 25/51/3 37/63/3 39/65/3 29/55/3
f 29/55/3 39/65/3 40/66/3 32/58/3
f 52/78/6 50/76/6 44/70/6 47/73/6
f 49/75/6 51/77/6 46/72/6 42/68/6
f 51/77/6 52/78/6 47/73/6 46/72/6
f 53/79/6 55/81/6 51/77/6 49/75/6
f 56/82/6 54/80/6 50/76/6 52/78/6
f 48/74/6 43/69/6 54/80/6 56/82/6
f 41/67/6 45/71/6 55/81/6 53/79/6
f 45/71/6 48/74/6 56/82/6 55/81/6
f 57/83/6 58/84/6 60/86/6 59/85/6
f 59/85/6 60/86/6 62/88/6 61/87/6
f 58/84/6 57/83/6 63/89/6 64/90/6
f 63/89/6 57/83/6 65/91/6 66/92/6
f 66/92/6 65/91/6 67/93/6 68/94/6
f 59/85/6 61/87/6 70/96/6 69/95/6
f 69/95/6 70/96/6 72/98/6 71/97/6
f 65/91/6 69/95/6 71/97/6 67/93/6
f 73/99/3 75/101/3 76/102/3 74/100/3
f 75/101/3 77/103/3 78/104/3 76/102/3
f 74/100/3 80/106/3 79/105/3 73/99/3
f 79/105/3 82/108/3 81/107/3 73/99/3
f 82/108/3 84/110/3 83/109/3 81/107/3
f 75/101/3 85/111/3 86/112/3 77/103/3
f 85/111/3 87/113/3 88/114/3 86/112/3
f 81/107/3 83/109/3 87/113/3 85/111/3
f 91/121/6 90/118/6 92/122/6 89/116/6
f 16/32/7 20/40/7 92/123/7 90/119/7
f 20/41/1 12/23/1 89/115/1 92/124/1
f 89/115/1 12/23/1 98/139/1 101/147/1
f 95/131/3 96/132/3 94/127/3 93/125/3
f 22/45/1 23/47/1 96/133/1 95/130/1
f 11/20/2 10/19/2 93/126/2 94/128/2
f 23/48/8 11/21/8 94/129/8 96/134/8
f 102/149/6 101/148/6 109/163/6 110/166/6
f 101/147/1 98/139/1 106/157/1 109/164/1
f 22/45/1 95/130/1 104/154/1 100/146/1
f 10/18/6 22/46/6 100/144/6 97/135/6
f 95/131/3 93/125/3 103/152/3 104/153/3
f 12/24/3 17/35/3 99/141/3 98/138/3
f 93/126/2 10/19/2 97/137/2 103/151/2
f 91/121/6 89/116/6 101/148/6 102/149/6
f 105/155/9 108/161/9 112/172/9 111/169/9
f 106/158/10 107/160/10 110/167/10 109/165/10
f 97/136/4 100/145/4 114/177/4 113/175/4
f 103/151/2 97/137/2 105/156/2 111/170/2
f 104/153/3 103/152/3 111/171/3 112/173/3
f 99/142/2 102/150/2 110/168/2 107/159/2
f 106/157/1 98/139/1 117/185/1 119/190/1
f 100/146/1 104/154/1 112/174/1 108/162/1
f 113/176/6 114/178/6 116/182/6 115/181/6
f 108/161/5 105/155/5 115/180/5 116/183/5
f 100/146/1 108/162/1 116/184/1 114/179/1
f 105/156/2 97/137/2 113/176/2 115/181/2
f 117/185/3 118/187/3 120/192/3 119/190/3
f 99/142/2 107/159/2 120/193/2 118/188/2
f 98/140/4 99/143/4 118/189/4 117/186/4
f 107/160/5 106/158/5 119/191/5 120/194/5
f 121/195/5 125/203/5 126/205/5 122/197/5
f 124/201/4 128/209/4 127/207/4 123/199/4
f 123/200/2 127/208/2 125/204/2 121/196/2
f 122/198/1 126/206/1 128/210/1 124/202/1
f 3/6/5 7/12/5 5/8/5 1/2/5
