# Blender 3.6.23
# www.blender.org
o blinds_2x2_broken_2
v 0.500828 0.414634 0.838595
v 0.498817 0.516901 0.861265
v 0.500796 0.416221 0.857277
v 0.498786 0.518488 0.879948
v -1.498786 0.375331 0.838595
v -1.500796 0.477598 0.861265
v -1.498817 0.376918 0.857277
v -1.500828 0.479185 0.879948
v 0.511834 -0.902519 0.786249
v 0.508635 -0.874225 0.887074
v 0.513651 -0.918117 0.796495
v 0.510453 -0.889822 0.897320
v -1.474851 -1.132912 0.787886
v -1.478050 -1.104618 0.888711
v -1.473034 -1.148509 0.798132
v -1.476232 -1.120215 0.898957
v -1.477194 -1.264984 0.892417
v -1.467751 -1.320429 0.804025
v -1.479224 -1.253059 0.878091
v -1.469782 -1.308504 0.789699
v 0.494419 -0.929208 0.892417
v 0.503861 -0.984654 0.804025
v 0.492388 -0.917284 0.878091
v 0.501831 -0.972729 0.789699
v 0.507133 -1.012134 0.787685
v 0.503194 -0.992686 0.890558
v 0.510411 -1.028319 0.796566
v 0.506472 -1.008870 0.899439
v -1.453070 -1.409129 0.787685
v -1.457009 -1.389680 0.890558
v -1.449792 -1.425313 0.796566
v -1.453731 -1.405865 0.899439
v -1.504960 -0.841973 0.895073
v -1.504758 -0.831540 0.790825
v -1.504606 -0.823612 0.891291
v -1.504405 -0.813179 0.787043
v 0.494670 -0.880492 0.895073
v 0.494870 -0.870059 0.790825
v 0.495023 -0.862131 0.891291
v 0.495224 -0.851698 0.787043
v 0.501131 -0.565359 0.825000
v 0.497670 -0.465419 0.856250
v 0.501131 -0.565359 0.843750
v 0.497670 -0.465419 0.875000
v -1.497670 -0.634581 0.825000
v -1.501131 -0.534641 0.856250
v -1.497670 -0.634581 0.843750
v -1.501131 -0.534641 0.875000
v -1.499986 -0.772185 0.896842
v -1.500557 -0.795622 0.794730
v -1.499592 -0.755998 0.887386
v -1.500163 -0.779436 0.785274
v 0.499421 -0.820861 0.896842
v 0.498851 -0.844299 0.794730
v 0.499815 -0.804675 0.887386
v 0.499245 -0.828113 0.785274
v 0.504288 -0.715767 0.786570
v 0.504352 -0.722533 0.891121
v 0.504460 -0.733986 0.790995
v 0.504523 -0.740753 0.895546
v -1.495623 -0.734643 0.786570
v -1.495559 -0.741409 0.891121
v -1.495451 -0.752863 0.790995
v -1.495387 -0.759629 0.895546
v -1.500000 -0.652926 0.892417
v -1.500000 -0.709170 0.804025
v -1.500000 -0.640830 0.878091
v -1.500000 -0.697074 0.789699
v 0.500000 -0.652926 0.892417
v 0.500000 -0.709170 0.804025
v 0.500000 -0.640830 0.878091
v 0.500000 -0.697074 0.789699
v 0.500000 -0.225000 0.825000
v 0.500000 -0.125000 0.856250
v 0.500000 -0.225000 0.843750
v 0.500000 -0.125000 0.875000
v -1.500000 -0.225000 0.825000
v -1.500000 -0.125000 0.856250
v -1.500000 -0.225000 0.843750
v -1.500000 -0.125000 0.875000
v -1.495072 -0.211188 0.900718
v -1.497508 -0.232941 0.798261
v -1.493565 -0.194924 0.891510
v -1.496001 -0.216678 0.789053
v 0.496001 -0.399804 0.893435
v 0.493565 -0.421558 0.790978
v 0.497508 -0.383541 0.884227
v 0.495072 -0.405294 0.781770
v 0.505658 -0.447465 0.798641
v 0.507976 -0.391269 0.887033
v 0.505160 -0.459551 0.812967
v 0.507477 -0.403355 0.901359
v -1.492643 -0.365059 0.798641
v -1.490326 -0.308863 0.887033
v -1.493142 -0.377145 0.812967
v -1.490824 -0.320949 0.901359
v -1.500131 -0.036557 0.897166
v -1.499488 -0.092243 0.808424
v -1.500319 -0.024372 0.882916
v -1.499677 -0.080058 0.794174
v 0.499677 -0.008954 0.894323
v 0.500319 -0.064640 0.805581
v 0.499488 0.003231 0.880073
v 0.500131 -0.052455 0.791331
v -1.494946 0.017842 0.905885
v -1.492979 -0.001375 0.802912
v -1.496631 0.034314 0.897088
v -1.494665 0.015097 0.794115
v 0.494665 0.221434 0.905885
v 0.496631 0.202216 0.802912
v 0.492979 0.237906 0.897088
v 0.494946 0.218689 0.794115
v 0.498569 0.256222 0.796849
v 0.495042 0.304077 0.889983
v 0.499549 0.242910 0.810017
v 0.496023 0.290766 0.903151
v -1.496023 0.109234 0.796849
v -1.499550 0.157090 0.889983
v -1.495042 0.095923 0.810017
v -1.498569 0.143779 0.903151
v -1.500000 0.365751 0.888267
v -1.500000 0.278881 0.829699
v -1.500000 0.371119 0.870301
v -1.500000 0.284249 0.811733
v 0.500000 0.365751 0.888267
v 0.500000 0.278881 0.829699
v 0.500000 0.371119 0.870301
v 0.500000 0.284249 0.811733
v 0.262500 -1.500000 0.862500
v 0.262500 0.500000 0.862500
v 0.262500 -1.500000 0.887500
v 0.262500 0.500000 0.887500
v 0.237500 -1.500000 0.862500
v 0.237500 0.500000 0.862500
v 0.237500 -1.500000 0.887500
v 0.237500 0.500000 0.887500
v -1.237500 -1.500000 0.862500
v -1.237500 0.500000 0.862500
v -1.237500 -1.500000 0.887500
v -1.237500 0.500000 0.887500
v -1.262500 -1.500000 0.862500
v -1.262500 0.500000 0.862500
v -1.262500 -1.500000 0.887500
v -1.262500 0.500000 0.887500
v -0.288345 -0.585124 0.863235
v -0.291806 -0.485184 0.894485
v -0.291806 -0.485184 0.875735
v -0.288345 -0.585124 0.844485
v -0.846636 -0.441327 0.875000
v -0.843175 -0.541267 0.825000
v -0.843175 -0.541267 0.843750
v -0.846636 -0.441327 0.856250
v -0.360497 -0.250362 0.876503
v -0.360497 -0.150362 0.907753
v -0.360497 -0.150362 0.889003
v -0.360497 -0.250362 0.857753
v -0.541667 -0.065947 0.888651
v -0.541025 -0.121633 0.799909
v -0.541479 -0.078132 0.902901
v -0.540836 -0.133818 0.814158
v -0.512500 0.012017 0.786497
v -0.514466 0.031234 0.889470
v -0.512781 0.014762 0.898267
v -0.510814 -0.004455 0.795294
v -0.415641 -0.926219 0.777257
v -0.419012 -0.899060 0.878389
v -0.419980 -0.914884 0.888400
v -0.416608 -0.942043 0.787268
v -0.364348 -1.146558 0.896372
v -0.372063 -1.152500 0.792056
v -0.375931 -1.135274 0.785744
v -0.368216 -1.129331 0.890060
v -0.499011 0.400278 0.831318
v -0.501021 0.502545 0.853988
v -0.498979 0.398691 0.812635
v -0.500989 0.500958 0.835306
vn 0.9998 0.0197 -0.0000
vn 0.0304 -0.2158 0.9760
vn -0.9998 -0.0197 -0.0000
vn 0.0219 0.2168 -0.9760
vn 0.0255 -0.9961 0.0847
vn -0.0137 0.9963 -0.0847
vn 0.9933 0.1152 -0.0008
vn 0.1111 -0.9559 0.2718
vn -0.9933 -0.1152 0.0008
vn -0.1111 0.9559 -0.2718
vn 0.0623 -0.5429 -0.8375
vn -0.0623 0.5429 0.8375
vn 0.0820 -0.5648 -0.8212
vn 0.1236 -0.9452 0.3022
vn 0.9858 0.1679 -0.0000
vn -0.2023 0.9326 -0.2989
vn -0.1310 0.5550 0.8214
vn -0.9858 -0.1679 -0.0000
vn -0.0940 0.4642 0.8807
vn 0.1949 -0.9624 0.1894
vn 0.0940 -0.4642 -0.8807
vn -0.1949 0.9624 -0.1894
vn -0.9801 -0.1985 -0.0000
vn 0.9801 0.1985 -0.0000
vn -0.9998 0.0192 -0.0000
vn -0.0835 -0.9933 0.0794
vn -0.0245 0.3749 0.9267
vn -0.0597 0.9948 -0.0821
vn 0.9998 -0.0193 -0.0000
vn -0.0439 -0.3724 -0.9270
vn -0.0250 0.9997 -0.0000
vn 0.0423 -0.2968 0.9540
vn 0.1411 -0.9900 -0.0000
vn -0.0310 0.2973 -0.9543
vn -0.9994 -0.0346 -0.0000
vn 0.9994 0.0346 -0.0000
vn -0.0123 -0.5041 -0.8635
vn -0.0237 -0.9744 0.2238
vn 0.9997 -0.0243 -0.0000
vn 0.0237 0.9744 -0.2238
vn 0.0123 0.5042 0.8635
vn -0.9997 0.0243 -0.0000
vn 1.0000 0.0094 -0.0000
vn 0.0094 -0.9979 -0.0646
vn -1.0000 -0.0094 -0.0000
vn -0.0094 0.9979 0.0646
vn 0.0022 -0.2360 -0.9718
vn -0.0022 0.2360 0.9718
vn -1.0000 -0.0000 -0.0000
vn -0.0000 -0.8437 0.5368
vn -0.0000 0.7640 0.6452
vn -0.0000 0.8437 -0.5368
vn 1.0000 -0.0000 -0.0000
vn -0.0000 -0.7640 -0.6452
vn -0.0295 0.9996 -0.0000
vn -0.0341 -0.2981 0.9539
vn -0.0223 -0.9998 -0.0000
vn -0.0451 0.2980 -0.9535
vn -0.9955 0.0943 0.0036
vn -0.0915 -0.9737 0.2089
vn 0.0495 0.4886 0.8711
vn 0.0915 0.9737 -0.2089
vn 0.9955 -0.0943 -0.0036
vn -0.0495 -0.4886 -0.8711
vn 0.9992 -0.0412 -0.0000
vn -0.0348 -0.8430 0.5368
vn -0.9992 0.0412 -0.0000
vn 0.0348 0.8430 -0.5368
vn -0.0315 -0.7634 -0.6452
vn 0.0315 0.7634 0.6452
vn -0.0291 -0.7599 -0.6494
vn -0.0399 -0.8465 0.5309
vn 0.9999 0.0138 -0.0014
vn -0.0605 0.8453 -0.5309
vn -0.0451 0.7590 0.6496
vn -0.9999 -0.0138 0.0014
vn -0.9948 -0.1018 -0.0000
vn -0.0017 -0.9830 0.1834
vn -0.1012 0.4606 0.8818
vn -0.1962 0.9632 -0.1835
vn 0.9948 0.1018 -0.0000
vn -0.0083 -0.4717 -0.8817
vn -0.0516 0.7004 0.7119
vn 0.0653 -0.8865 0.4580
vn 0.0516 -0.7004 -0.7119
vn -0.0653 0.8865 -0.4580
vn -0.9973 -0.0735 -0.0000
vn 0.9973 0.0735 -0.0000
vn -0.0000 -0.9582 -0.2863
vn -0.0000 -0.5590 0.8292
vn -0.0000 0.5590 -0.8292
vn -0.0000 0.9582 0.2863
vn -0.0000 -0.0000 1.0000
vn -0.0000 -0.0000 -1.0000
vn -0.0000 -1.0000 -0.0000
vn -0.0000 1.0000 -0.0000
vn 0.0571 0.2998 -0.9523
vn 0.0250 -0.9997 -0.0000
vn 0.0310 -0.2973 0.9543
vn 0.0788 0.9969 -0.0000
vn -0.1411 0.9900 -0.0000
vn -0.0423 0.2968 -0.9540
vn -0.0788 -0.9969 -0.0000
vn -0.0571 -0.2998 0.9523
vn 0.0341 0.2981 -0.9539
vn 0.0295 -0.9996 -0.0000
vn 0.0451 -0.2980 0.9535
vn 0.0223 0.9998 -0.0000
vn 0.0291 0.7599 0.6494
vn 0.0399 0.8465 -0.5309
vn 0.0605 -0.8453 0.5309
vn 0.0451 -0.7590 -0.6496
vn 0.1012 -0.4606 -0.8818
vn 0.0017 0.9830 -0.1834
vn 0.0083 0.4717 0.8817
vn 0.1962 -0.9632 0.1835
vn 0.0369 -0.3752 -0.9262
vn 0.0853 0.9932 -0.0794
vn 0.0338 0.3728 0.9273
vn 0.0575 -0.9950 0.0820
vn -0.0677 0.5673 0.8207
vn -0.1262 0.9449 -0.3021
vn 0.2056 -0.9319 0.2987
vn 0.1127 -0.5588 -0.8216
vn -0.0255 0.9961 -0.0847
vn 0.0137 -0.9963 0.0847
vn -0.0304 0.2158 -0.9760
vn -0.0219 -0.2168 0.9760
vt 0.000000 0.937500
vt 0.000000 1.000000
vt 0.031250 1.000000
vt 0.031250 0.937500
vt 0.500000 0.937500
vt 0.500000 1.000000
vt 1.000000 1.000000
vt 1.000000 0.937500
vt 0.968750 1.000000
vt 0.968750 0.937500
vt 0.500000 0.843750
vt 0.500000 0.906250
vt 0.000000 0.906250
vt 0.000000 0.843750
vt 1.000000 0.843750
vt 1.000000 0.812500
vt 0.500000 0.812500
vt 0.000000 0.375000
vt 0.000000 0.437500
vt 0.031250 0.437500
vt 0.031250 0.375000
vt 1.000000 0.437500
vt 1.000000 0.375000
vt 0.968750 0.437500
vt 0.968750 0.375000
vt 1.000000 0.281250
vt 1.000000 0.343750
vt 0.000000 0.343750
vt 0.000000 0.281250
vt 1.000000 0.250000
vt 0.000000 0.250000
vt 0.500000 0.093750
vt 1.000000 0.093750
vt 1.000000 0.062500
vt 0.500000 0.062500
vt 0.500000 0.187500
vt 0.500000 0.250000
vt 1.000000 0.187500
vt 0.000000 0.187500
vt 0.031250 0.250000
vt 0.031250 0.187500
vt 0.500000 0.093750
vt 0.500000 0.156250
vt 0.000000 0.156250
vt 0.000000 0.093750
vt 0.968750 0.250000
vt 0.968750 0.187500
vt 1.000000 0.906250
vt 0.000000 0.812500
vt 1.000000 0.562500
vt 1.000000 0.625000
vt 0.968750 0.625000
vt 0.968750 0.562500
vt 0.500000 0.562500
vt 0.500000 0.625000
vt 0.000000 0.562500
vt 0.000000 0.531250
vt 0.500000 0.531250
vt 0.500000 0.468750
vt 0.000000 0.468750
vt 0.000000 0.625000
vt 0.031250 0.625000
vt 0.031250 0.562500
vt 1.000000 0.468750
vt 0.500000 0.437500
vt 0.393384 0.375000
vt 0.393384 0.343750
vt 0.694865 0.375000
vt 0.694865 0.437500
vt 0.694865 0.281250
vt 0.694865 0.250000
vt 0.393384 0.281250
vt 0.031250 0.437500
vt 0.031250 0.375000
vt 0.000000 0.656250
vt 1.000000 0.656250
vt 0.000000 0.750000
vt 1.000000 0.750000
vt 0.031250 0.812500
vt 0.031250 0.750000
vt 1.000000 0.718750
vt 0.000000 0.718750
vt 0.968750 0.812500
vt 0.968750 0.750000
vt 1.000000 0.156250
vt 0.000000 0.062500
vt 0.500000 0.906250
vt 1.000000 0.531250
vt 0.500000 0.093750
vt 0.500000 0.156250
vt 0.500000 0.375000
vt 0.500000 0.343750
vt 0.500000 0.281250
vt 0.500000 0.250000
vt 0.031250 -0.000000
vt 0.062500 1.000000
vt 0.062500 -0.000000
vt 0.000000 -0.000000
vt 0.125000 -0.000000
vt 0.125000 1.000000
vt 0.093750 1.000000
vt 0.093750 -0.000000
vt 0.156250 1.000000
vt 0.156250 0.968750
vt 0.125000 0.968750
vt 0.125000 0.937500
vt 0.156250 0.937500
vt 0.906250 0.000000
vt 0.906250 1.000000
vt 0.937500 1.000000
vt 0.937500 0.000000
vt 0.875000 0.000000
vt 0.875000 1.000000
vt 1.000000 0.000000
vt 0.968750 0.000000
vt 0.843750 1.000000
vt 0.875000 0.968750
vt 0.843750 0.968750
vt 0.843750 0.937500
vt 0.875000 0.937500
vt 0.694865 0.281250
vt 0.694865 0.343750
vt 0.393384 0.250000
vt 0.393384 0.437500
vt 0.393384 0.375000
vt 0.694865 0.375000
s 0
f 1/1/1 2/2/1 4/3/1 3/4/1
f 173/5/2 174/6/2 8/7/2 7/8/2
f 7/8/3 8/7/3 6/9/3 5/10/3
f 175/11/4 176/12/4 2/13/4 1/14/4
f 173/11/5 7/15/5 5/16/5 175/17/5
f 174/5/6 4/1/6 2/13/6 176/12/6
f 9/18/7 10/19/7 12/20/7 11/21/7
f 11/18/8 12/19/8 16/22/8 15/23/8
f 15/23/9 16/22/9 14/24/9 13/25/9
f 13/26/10 14/27/10 10/28/10 9/29/10
f 11/29/11 15/26/11 13/30/11 9/31/11
f 16/23/12 12/18/12 10/28/12 14/27/12
f 170/32/13 18/33/13 20/34/13 171/35/13
f 170/36/14 169/37/14 17/30/14 18/38/14
f 24/39/15 23/31/15 21/40/15 22/41/15
f 171/42/16 172/43/16 23/44/16 24/45/16
f 169/36/17 21/39/17 23/44/17 172/43/17
f 18/38/18 17/30/18 19/46/18 20/47/18
f 32/8/19 28/1/19 26/13/19 30/48/19
f 27/1/20 28/2/20 32/7/20 31/8/20
f 27/14/21 31/15/21 29/16/21 25/49/21
f 29/15/22 30/48/22 26/13/22 25/14/22
f 31/8/23 32/7/23 30/9/23 29/10/23
f 25/1/24 26/2/24 28/3/24 27/4/24
f 34/50/25 33/51/25 35/52/25 36/53/25
f 168/54/26 167/55/26 33/51/26 34/50/26
f 167/54/27 37/56/27 39/57/27 166/58/27
f 165/59/28 166/58/28 39/57/28 40/60/28
f 40/56/29 39/61/29 37/62/29 38/63/29
f 168/59/30 34/64/30 36/22/30 165/65/30
f 146/66/31 44/18/31 42/28/31 147/67/31
f 151/68/32 149/69/32 48/22/32 47/23/32
f 151/70/33 47/26/33 45/30/33 150/71/33
f 148/72/34 147/67/34 42/28/34 41/29/34
f 47/23/35 48/22/35 46/24/35 45/25/35
f 41/18/36 42/19/36 44/73/36 43/74/36
f 54/75/37 50/76/37 52/51/37 56/61/37
f 54/77/38 53/49/38 49/16/38 50/78/38
f 56/77/39 55/49/39 53/79/39 54/80/39
f 52/76/40 51/81/40 55/82/40 56/75/40
f 49/78/41 53/77/41 55/82/41 51/81/41
f 50/78/42 49/16/42 51/83/42 52/84/42
f 57/1/43 58/2/43 60/3/43 59/4/43
f 59/1/44 60/2/44 64/7/44 63/8/44
f 63/8/45 64/7/45 62/9/45 61/10/45
f 61/15/46 62/48/46 58/13/46 57/14/46
f 59/14/47 63/15/47 61/16/47 57/49/47
f 64/8/48 60/1/48 58/13/48 62/48/48
f 66/38/49 65/30/49 67/46/49 68/47/49
f 70/39/50 69/31/50 65/30/50 66/38/50
f 65/38/51 69/39/51 71/44/51 67/85/51
f 68/33/52 67/85/52 71/44/52 72/45/52
f 72/39/53 71/31/53 69/40/53 70/41/53
f 70/45/54 66/33/54 68/34/54 72/86/54
f 154/5/55 76/1/55 74/13/55 155/87/55
f 153/5/56 154/6/56 80/7/56 79/8/56
f 153/11/57 79/15/57 77/16/57 156/17/57
f 156/11/58 155/87/58 74/13/58 73/14/58
f 79/8/49 80/7/49 78/9/49 77/10/49
f 73/1/53 74/2/53 76/3/53 75/4/53
f 82/78/59 81/16/59 83/83/59 84/84/59
f 86/77/60 85/49/60 81/16/60 82/78/60
f 81/78/61 85/77/61 87/82/61 83/81/61
f 84/76/62 83/81/62 87/82/62 88/75/62
f 88/77/63 87/49/63 85/79/63 86/80/63
f 86/75/64 82/76/64 84/51/64 88/61/64
f 89/56/65 90/61/65 92/62/65 91/63/65
f 91/56/66 92/61/66 96/51/66 95/50/66
f 95/50/67 96/51/67 94/52/67 93/53/67
f 93/64/68 94/88/68 90/57/68 89/60/68
f 91/60/69 95/64/69 93/22/69 89/19/69
f 96/50/70 92/56/70 90/57/70 94/88/70
f 160/89/71 98/33/71 100/34/71 158/35/71
f 160/36/72 159/37/72 97/30/72 98/38/72
f 104/39/73 103/31/73 101/40/73 102/41/73
f 158/42/74 157/90/74 103/44/74 104/45/74
f 159/36/75 101/39/75 103/44/75 157/90/75
f 98/38/76 97/30/76 99/46/76 100/47/76
f 106/23/77 105/22/77 107/24/77 108/25/77
f 164/91/78 163/65/78 105/22/78 106/23/78
f 163/91/79 109/18/79 111/28/79 162/92/79
f 161/93/80 162/92/80 111/28/80 112/29/80
f 112/18/81 111/19/81 109/73/81 110/74/81
f 164/93/82 106/26/82 108/30/82 161/94/82
f 120/50/83 116/56/83 114/57/83 118/88/83
f 115/56/84 116/61/84 120/51/84 119/50/84
f 115/60/85 119/64/85 117/22/85 113/19/85
f 117/64/86 118/88/86 114/57/86 113/60/86
f 119/50/87 120/51/87 118/52/87 117/53/87
f 113/56/88 114/61/88 116/62/88 115/63/88
f 126/75/89 122/76/89 124/51/89 128/61/89
f 126/77/90 125/49/90 121/16/90 122/78/90
f 128/77/53 127/49/53 125/79/53 126/80/53
f 124/76/91 123/81/91 127/82/91 128/75/91
f 121/78/92 125/77/92 127/82/92 123/81/92
f 122/78/49 121/16/49 123/83/49 124/84/49
f 129/95/53 130/3/53 132/96/53 131/97/53
f 131/98/93 132/2/93 136/3/93 135/95/93
f 135/99/49 136/100/49 134/101/49 133/102/49
f 133/102/94 134/101/94 130/96/94 129/97/94
f 131/100/95 135/103/95 133/104/95 129/105/95
f 136/104/96 132/105/96 130/106/96 134/107/96
f 137/108/53 138/109/53 140/110/53 139/111/53
f 139/112/93 140/113/93 144/109/93 143/108/93
f 143/114/49 144/7/49 142/9/49 141/115/49
f 141/115/94 142/9/94 138/110/94 137/111/94
f 139/116/95 143/113/95 141/117/95 137/118/95
f 144/117/96 140/118/96 138/119/96 142/120/96
f 150/121/97 152/122/97 147/67/97 148/72/97
f 43/29/98 145/72/98 148/123/98 41/31/98
f 43/18/99 44/19/99 146/124/99 145/125/99
f 149/126/100 146/66/100 147/67/100 152/122/100
f 48/23/101 149/126/101 152/122/101 46/27/101
f 45/26/102 46/27/102 152/122/102 150/121/102
f 145/72/103 151/70/103 150/71/103 148/123/103
f 145/125/104 146/124/104 149/69/104 151/68/104
f 77/15/105 78/48/105 155/87/105 156/11/105
f 75/14/106 153/11/106 156/17/106 73/49/106
f 75/1/107 76/2/107 154/6/107 153/5/107
f 80/8/108 154/5/108 155/87/108 78/48/108
f 97/38/109 159/36/109 157/90/109 99/85/109
f 100/33/110 99/85/110 157/90/110 158/42/110
f 102/39/111 101/31/111 159/37/111 160/36/111
f 102/45/112 160/89/112 158/35/112 104/86/112
f 110/29/113 164/93/113 161/94/113 112/31/113
f 108/26/114 107/27/114 162/92/114 161/93/114
f 105/23/115 163/91/115 162/92/115 107/27/115
f 110/18/116 109/19/116 163/65/116 164/91/116
f 38/60/117 168/59/117 165/65/117 40/19/117
f 36/64/118 35/88/118 166/58/118 165/59/118
f 33/50/119 167/54/119 166/58/119 35/88/119
f 38/56/120 37/61/120 167/55/120 168/54/120
f 17/38/121 169/36/121 172/43/121 19/85/121
f 20/33/122 19/85/122 172/43/122 171/42/122
f 22/39/123 21/31/123 169/37/123 170/36/123
f 22/45/124 170/32/124 171/35/124 24/86/124
f 8/8/125 174/5/125 176/12/125 6/48/125
f 3/14/126 173/11/126 175/17/126 1/49/126
f 5/15/127 6/48/127 176/12/127 175/11/127
f 3/1/128 4/2/128 174/6/128 173/5/128
