# Blender 3.4.1
# www.blender.org
o left_open_2
v 0.375000 -1.500001 -0.250000
v 0.375000 1.500000 -0.250000
v 0.500000 -1.500001 -0.250000
v 0.500000 1.500000 -0.250000
v 0.375000 -1.500001 1.750000
v 0.375000 1.500000 1.750000
v 0.500000 -1.500001 1.750000
v 0.500000 1.500000 1.750000
v 0.568750 -0.062501 1.437500
v 0.625000 -0.312501 1.437500
v 0.625000 -0.062501 1.437500
v 0.250000 -0.312501 -0.062500
v 0.568750 -0.312501 -0.062500
v 0.306250 -0.062501 1.437500
v 0.306250 -0.312501 1.437500
v 0.250000 -0.062501 1.437500
v 0.250000 -0.312501 1.437500
v 0.306250 -0.062501 -0.062500
v 0.306250 -0.312501 -0.062500
v 0.250000 -0.062501 -0.062500
v 0.568750 -0.062501 -0.062500
v 0.625000 -0.312501 -0.062500
v 0.625000 -0.062501 -0.062500
v 0.568750 -0.312501 1.437500
v 0.375000 -1.500001 -0.250000
v 0.375000 1.500000 -0.250000
v 0.375000 -1.500001 1.750000
v 0.375000 1.500000 1.750000
v 0.500000 -1.500001 -0.250000
v 0.500000 1.500000 -0.250000
v 0.500000 -1.500001 1.750000
v 0.500000 1.500000 1.750000
v 0.500000 -0.000001 -0.062500
v 0.625000 -0.375001 -0.062500
v 0.625000 -0.000001 -0.062500
v 0.250000 -0.375001 -0.250000
v 0.500000 -0.375001 -0.250000
v 0.375000 -0.000001 -0.062500
v 0.375000 -0.375001 -0.062500
v 0.250000 -0.000001 -0.062500
v 0.250000 -0.375001 -0.062500
v 0.375000 -0.000001 -0.250000
v 0.375000 -0.375001 -0.250000
v 0.250000 -0.000001 -0.250000
v 0.500000 -0.000001 -0.250000
v 0.625000 -0.375001 -0.250000
v 0.625000 -0.000001 -0.250000
v 0.500000 -0.375001 -0.062500
v 0.306250 -0.187501 1.312500
v 0.375000 -0.062501 1.437500
v 0.375000 -0.187501 1.437500
v 0.306250 -0.062501 1.437500
v 0.306250 -0.187501 1.437500
v 0.375000 -0.062501 1.312500
v 0.375000 -0.187501 1.312500
v 0.306250 -0.062501 1.312500
v 0.568750 -0.187501 1.437500
v 0.500000 -0.062501 1.312500
v 0.500000 -0.187501 1.312500
v 0.568750 -0.062501 1.312500
v 0.568750 -0.187501 1.312500
v 0.500000 -0.062501 1.437500
v 0.500000 -0.187501 1.437500
v 0.568750 -0.062501 1.437500
vn -0.0000 -0.0000 -1.0000
vn -0.0000 -0.0000 1.0000
vn 1.0000 -0.0000 -0.0000
vn -0.0000 1.0000 -0.0000
vn -0.0000 -1.0000 -0.0000
vn -1.0000 -0.0000 -0.0000
vt 0.354167 -0.000000
vt 0.020833 0.000000
vt 0.354167 1.000000
vt 0.020833 0.958333
vt 0.375000 -0.000000
vt 0.020833 0.041667
vt 0.375000 1.000000
vt 0.020833 1.000000
vt 0.000000 0.000000
vt 0.354167 0.000000
vt 0.000000 1.000000
vt 0.354167 0.958333
vt 0.020833 0.000000
vt 0.354167 0.041667
vt 0.020833 1.000000
vt 0.354167 1.000000
vt 0.989583 0.520833
vt 0.989583 0.000000
vt 0.947917 0.500000
vt 0.989583 0.500000
vt 1.000000 0.000000
vt 0.989583 0.500000
vt 0.947917 0.500000
vt 1.000000 0.000000
vt 0.989583 0.000000
vt 0.937500 0.500000
vt 0.947917 0.520833
vt 0.947917 0.520833
vt 0.989583 0.500000
vt 0.947917 0.000000
vt 0.989583 0.500000
vt 0.947917 0.000000
vt 0.947917 0.500000
vt 0.947917 0.500000
vt 0.937500 0.000000
vt 0.989583 0.520833
vt 0.989583 0.500000
vt 0.937500 0.000000
vt 0.947917 0.520833
vt 0.947917 0.500000
vt 0.989583 0.500000
vt 0.947917 0.500000
vt 0.947917 0.000000
vt 0.937500 0.500000
vt 0.989583 0.520833
vt 0.989583 0.520833
vt 0.989583 0.500000
vt 0.947917 0.500000
vt 0.989583 0.000000
vt 1.000000 0.500000
vt 0.989583 0.500000
vt 0.947917 0.000000
vt 1.000000 0.500000
vt 0.947917 0.520833
vt 0.989583 0.000000
vt 0.020833 0.000000
vt 0.020833 1.000000
vt 0.354167 0.000000
vt 0.354167 1.000000
vt 0.708333 -0.000000
vt 0.708333 1.000000
vt 0.375000 -0.000000
vt 0.375000 1.000000
vt 0.937500 0.104167
vt 0.916667 0.104167
vt 0.875000 0.062500
vt 0.937500 0.062500
vt 0.937500 0.104167
vt 0.937500 0.062500
vt 0.875000 0.062500
vt 0.937500 0.104167
vt 0.937500 0.000000
vt 0.895833 0.166667
vt 0.875000 0.104167
vt 0.875000 0.104167
vt 0.916667 0.166667
vt 0.916667 0.104167
vt 0.937500 0.062500
vt 0.916667 0.104167
vt 0.875000 0.062500
vt 0.875000 0.062500
vt 0.895833 0.104167
vt 0.937500 0.104167
vt 0.937500 0.062500
vt 0.895833 0.104167
vt 0.875000 0.104167
vt 0.916667 0.166667
vt 0.937500 0.062500
vt 0.916667 0.166667
vt 0.875000 0.062500
vt 0.875000 0.000000
vt 0.895833 0.166667
vt 0.937500 0.104167
vt 0.937500 0.104167
vt 0.916667 0.166667
vt 0.875000 0.062500
vt 0.937500 0.000000
vt 0.937500 0.166667
vt 0.937500 0.062500
vt 0.875000 0.000000
vt 0.937500 0.166667
vt 0.875000 0.104167
vt 0.916667 0.104167
vt 0.958333 0.041667
vt 0.968750 0.041667
vt 0.968750 0.000000
vt 0.989583 0.020833
vt 0.968750 0.000000
vt 0.968750 0.020833
vt 0.958333 0.000000
vt 0.989583 0.041667
vt 0.958333 0.000000
vt 0.968750 0.041667
vt 0.968750 0.041667
vt 0.989583 0.020833
vt 0.968750 0.041667
vt 0.968750 0.020833
vt 0.958333 0.041667
vt 0.989583 0.041667
vt 1.000000 0.000000
vt 0.968750 0.000000
vt 0.989583 0.041667
vt 0.989583 0.020833
vt 0.989583 0.041667
vt 0.968750 0.020833
vt 1.000000 0.041667
vt 0.989583 0.000000
vt 1.000000 0.041667
vt 0.968750 0.000000
vt 0.989583 0.000000
vt 0.989583 0.020833
vt 0.989583 0.000000
vt 0.968750 0.020833
vt 1.000000 0.000000
vt 0.989583 0.000000
s 0
f 1/1/1 2/3/1 4/7/1 3/5/1
f 7/13/2 8/15/2 6/11/2 5/9/2
f 29/60/3 30/61/3 32/63/3 31/62/3
f 8/16/4 4/8/4 2/4/4 6/12/4
f 10/19/2 11/22/2 9/17/2 24/54/2
f 13/28/1 21/46/1 23/51/1 22/48/1
f 22/49/3 23/52/3 11/23/3 10/20/3
f 22/50/5 10/21/5 24/55/5 13/29/5
f 17/37/6 16/34/6 20/43/6 12/25/6
f 19/42/5 15/32/5 17/38/5 12/26/5
f 14/30/4 18/40/4 20/44/4 16/35/4
f 15/33/2 14/31/2 16/36/2 17/39/2
f 12/27/1 20/45/1 18/41/1 19/42/1
f 3/6/5 7/14/5 5/10/5 1/2/5
f 11/24/4 23/53/4 21/47/4 9/18/4
f 27/58/6 28/59/6 26/57/6 25/56/6
f 34/66/2 35/69/2 33/64/2 48/102/2
f 37/75/1 45/94/1 47/99/1 46/96/1
f 46/97/3 47/100/3 35/70/3 34/67/3
f 46/98/5 34/68/5 48/103/5 37/76/5
f 41/84/6 40/81/6 44/91/6 36/72/6
f 43/89/5 39/79/5 41/85/5 36/73/5
f 38/77/4 42/87/4 44/92/4 40/82/4
f 39/80/2 38/78/2 40/83/2 41/86/2
f 36/74/1 44/93/1 42/88/1 43/90/1
f 35/71/4 47/101/4 45/95/4 33/65/4
f 55/116/5 51/108/5 53/112/5 49/104/5
f 50/106/4 54/114/4 56/118/4 52/110/4
f 51/109/2 50/107/2 52/111/2 53/113/2
f 49/105/1 56/119/1 54/115/1 55/117/1
f 63/132/5 59/124/5 61/128/5 57/120/5
f 58/122/4 62/130/4 64/134/4 60/126/4
f 59/125/1 58/123/1 60/127/1 61/129/1
f 57/121/2 64/135/2 62/131/2 63/133/2
