# Blender 3.4.1
# www.blender.org
o hr_right.003
v 0.499938 -0.625063 0.562562
v 0.499938 -0.500063 0.562562
v -0.500063 0.374938 0.562562
v -0.500063 0.499938 0.562562
v 0.499938 -0.625063 0.437563
v 0.499938 -0.500063 0.437563
v -0.500063 0.374938 0.437563
v -0.500063 0.499938 0.437563
v -0.062562 -0.187562 0.531375
v 0.062438 -0.187562 0.531375
v -0.062563 -0.187562 0.468875
v 0.062438 -0.187562 0.468875
v -0.062562 -0.562563 0.468875
v -0.062562 -0.500063 0.531375
v 0.062438 -0.500063 0.531375
v 0.062437 -0.562563 0.468875
v -0.062562 -0.062563 0.531375
v -0.062563 -0.062563 0.468875
v -0.062562 -0.625063 0.531375
v 0.062438 -0.625063 0.531375
v 0.499938 -1.000062 0.562562
v 0.499938 -0.875063 0.562562
v -0.500063 -0.000063 0.562562
v -0.500063 0.124937 0.562562
v 0.499938 -1.000062 0.437563
v 0.499938 -0.875063 0.437563
v -0.500063 -0.000063 0.437563
v -0.500063 0.124937 0.437563
vn -0.0000 -0.0000 1.0000
vn -1.0000 -0.0000 -0.0000
vn -0.0000 -0.0000 -1.0000
vn 1.0000 -0.0000 -0.0000
vn -0.7071 -0.7071 -0.0000
vn 0.7071 0.7071 -0.0000
vn -0.0000 0.7071 0.7071
vt 1.000000 -0.125000
vt 0.000000 1.000000
vt 1.000000 0.875000
vt 1.000000 -0.000000
vt 1.000000 1.000000
vt 1.000000 0.875000
vt 0.000000 0.000000
vt 0.000000 0.875000
vt 0.000000 1.000000
vt 1.000000 0.000000
vt -0.000000 0.875000
vt -0.000000 -0.125000
vt 0.000000 0.000000
vt 1.000000 1.000000
vt -0.000000 -0.000000
vt 1.000000 0.000000
vt 1.000000 1.000000
vt 1.000000 0.875000
vt 0.000000 1.000000
vt 1.000000 1.000000
vt -0.000000 1.000000
vt 0.562500 0.312500
vt 0.500000 0.312500
vt 0.437500 0.312500
vt 0.500000 0.312500
vt 0.562500 0.312500
vt 0.500000 0.312500
vt 0.437500 0.312500
vt 0.562500 0.312500
vt 0.562500 0.312500
vt 0.437500 0.312500
vt 0.500000 0.000000
vt 0.437500 -0.062500
vt 0.562500 -0.062500
vt 0.562500 0.062500
vt 0.437500 0.000000
vt 0.437500 0.062500
vt 0.500000 -0.000000
vt 0.562500 0.000000
vt 0.562500 0.062500
vt 0.437500 0.062500
vt 0.437500 0.062500
vt 0.562500 -0.062500
vt 0.437500 -0.062500
vt 0.500000 -0.000000
vt 0.500000 0.437500
vt 0.437500 0.437500
vt 0.562500 0.437500
vt 0.562500 -0.062500
vt 0.562500 -0.125000
vt 0.437500 -0.062500
vt 0.437500 -0.125000
vt 0.562500 -0.062500
vt 0.437500 -0.062500
vt 1.000000 -0.125000
vt 0.000000 1.000000
vt 1.000000 0.875000
vt 1.000000 -0.000000
vt 1.000000 1.000000
vt 1.000000 0.875000
vt 0.000000 0.000000
vt 0.000000 0.875000
vt 0.000000 1.000000
vt 1.000000 0.000000
vt -0.000000 0.875000
vt -0.000000 -0.125000
vt 0.000000 0.000000
vt 1.000000 1.000000
vt -0.000000 -0.000000
vt 1.000000 0.000000
vt 1.000000 1.000000
vt 1.000000 0.875000
vt 0.000000 1.000000
vt 1.000000 1.000000
vt -0.000000 1.000000
s 0
f 1/1/1 2/4/1 4/9/1 3/8/1
f 3/7/2 4/10/2 8/20/2 7/19/2
f 7/18/3 8/20/3 6/15/3 5/12/3
f 5/13/4 6/16/4 2/5/4 1/2/4
f 3/8/5 7/19/5 5/14/5 1/3/5
f 8/21/6 4/11/6 2/6/6 6/17/6
f 14/35/4 19/49/4 13/32/4
f 10/25/2 12/31/2 16/42/2 15/38/2
f 11/27/4 9/22/4 14/35/4 13/32/4
f 12/30/1 11/28/1 13/33/1 16/43/1
f 9/24/3 10/26/3 15/39/3 14/36/3
f 9/23/4 11/29/4 18/48/4 17/46/4
f 11/29/1 12/31/1 18/48/1
f 9/24/3 17/47/3 10/26/3
f 16/44/7 13/34/7 19/50/7 20/52/7
f 14/37/3 15/40/3 20/53/3 19/51/3
f 16/45/2 20/54/2 15/41/2
f 21/55/1 22/58/1 24/63/1 23/62/1
f 23/61/2 24/64/2 28/74/2 27/73/2
f 27/72/3 28/74/3 26/69/3 25/66/3
f 25/67/4 26/70/4 22/59/4 21/56/4
f 23/62/5 27/73/5 25/68/5 21/57/5
f 28/75/6 24/65/6 22/60/6 26/71/6
