# Blender 3.6.23
# www.blender.org
o blinds_2x2_broken_1
v 0.500000 0.400000 0.825000
v 0.500000 0.500000 0.856250
v 0.500000 0.400000 0.843750
v 0.500000 0.500000 0.875000
v -1.500000 0.400000 0.825000
v -1.500000 0.500000 0.856250
v -1.500000 0.400000 0.843750
v -1.500000 0.500000 0.875000
v 0.459859 -0.837526 0.779424
v 0.469505 -0.811219 0.880377
v 0.455789 -0.852750 0.789584
v 0.465434 -0.826443 0.890537
v -1.464581 -0.294635 0.821825
v -1.454935 -0.268328 0.922777
v -1.468651 -0.309858 0.831985
v -1.459006 -0.283551 0.932938
v -1.397882 -0.395738 0.911395
v -1.413452 -0.440520 0.817967
v -1.393545 -0.383029 0.898309
v -1.409116 -0.427811 0.804881
v 0.493719 -1.045223 0.907452
v 0.478149 -1.090004 0.814025
v 0.498056 -1.032514 0.894366
v 0.482485 -1.077295 0.800939
v 0.426182 -1.385761 0.800971
v 0.446726 -1.343031 0.894398
v 0.420433 -1.397897 0.814057
v 0.440978 -1.355167 0.907484
v -1.379641 -0.526118 0.804910
v -1.359097 -0.483388 0.898337
v -1.385390 -0.538253 0.817995
v -1.364845 -0.495524 0.911423
v -1.404784 -0.493455 0.913563
v -1.412393 -0.515109 0.811339
v -1.399286 -0.478178 0.904186
v -1.406894 -0.499831 0.801962
v 0.477628 -1.169113 0.916577
v 0.470019 -1.190766 0.814352
v 0.483126 -1.153836 0.907200
v 0.475518 -1.175489 0.804975
v 0.480706 -0.524822 0.825000
v 0.495943 -0.425990 0.856250
v 0.480706 -0.524822 0.843750
v 0.495943 -0.425990 0.875000
v -1.495942 -0.220095 0.825000
v -1.480706 -0.121263 0.856250
v -1.495942 -0.220095 0.843750
v -1.480706 -0.121263 0.875000
v -1.411412 -0.336651 0.909536
v -1.434585 -0.409448 0.837842
v -1.409075 -0.328822 0.892660
v -1.432248 -0.401620 0.820965
v 0.497706 -0.932574 0.897577
v 0.474533 -1.005372 0.825883
v 0.500043 -0.924746 0.880700
v 0.476871 -0.997544 0.809006
v 0.501198 -0.738152 0.806006
v 0.511978 -0.692028 0.899456
v 0.498141 -0.751234 0.819086
v 0.508920 -0.705110 0.912536
v -1.446939 -0.282833 0.806006
v -1.434432 -0.237148 0.899456
v -1.450486 -0.295791 0.819086
v -1.437979 -0.250105 0.912536
v -1.466667 -0.213539 0.903265
v -1.475955 -0.259986 0.809815
v -1.464033 -0.200365 0.890185
v -1.473321 -0.246812 0.796735
v 0.494509 -0.605697 0.903265
v 0.485221 -0.652145 0.809815
v 0.497143 -0.592523 0.890185
v 0.487855 -0.638971 0.796735
v 0.498936 -0.164748 0.787384
v 0.505235 -0.092179 0.862688
v 0.498590 -0.173723 0.803842
v 0.504888 -0.101154 0.879147
v -1.495988 -0.026338 0.820853
v -1.489690 0.046230 0.896158
v -1.496334 -0.035313 0.837312
v -1.490036 0.037255 0.912616
v -1.493716 -0.081337 0.896623
v -1.496487 -0.164458 0.832907
v -1.493501 -0.074896 0.879016
v -1.496273 -0.158017 0.815299
v 0.505173 -0.147981 0.896623
v 0.502402 -0.231102 0.832907
v 0.505388 -0.141540 0.879016
v 0.502617 -0.224661 0.815299
v 0.503052 -0.345429 0.802119
v 0.509302 -0.268440 0.872902
v 0.502504 -0.353378 0.819091
v 0.508754 -0.276390 0.889875
v -1.490954 -0.190898 0.810125
v -1.484703 -0.113909 0.880909
v -1.491501 -0.198847 0.827098
v -1.485251 -0.121859 0.897881
v -1.501737 0.117473 0.901463
v -1.505343 0.040590 0.830382
v -1.501361 0.125497 0.884522
v -1.504967 0.048614 0.813440
v 0.496067 0.023764 0.901463
v 0.492460 -0.053119 0.830382
v 0.496443 0.031789 0.884522
v 0.492837 -0.045094 0.813440
v -1.500000 0.146336 0.906584
v -1.500000 0.063961 0.841846
v -1.500000 0.152997 0.889058
v -1.500000 0.070623 0.824319
v 0.500000 0.146336 0.906584
v 0.500000 0.063961 0.841846
v 0.500000 0.152997 0.889058
v 0.500000 0.070623 0.824319
v 0.487804 0.208463 0.825000
v 0.484186 0.308397 0.856250
v 0.487804 0.208463 0.843750
v 0.484186 0.308397 0.875000
v -1.510887 0.136104 0.825000
v -1.514505 0.236039 0.856250
v -1.510887 0.136104 0.843750
v -1.514505 0.236039 0.875000
v -1.498339 0.393980 0.891066
v -1.500902 0.311532 0.826472
v -1.498133 0.400608 0.873527
v -1.500696 0.318160 0.808934
v 0.500696 0.331840 0.891066
v 0.498133 0.249392 0.826472
v 0.500902 0.338468 0.873527
v 0.498339 0.256020 0.808934
v 0.262500 -1.500000 0.862500
v 0.262500 0.500000 0.862500
v 0.262500 -1.500000 0.887500
v 0.262500 0.500000 0.887500
v 0.237500 -1.500000 0.862500
v 0.237500 0.500000 0.862500
v 0.237500 -1.500000 0.887500
v 0.237500 0.500000 0.887500
v -1.237500 -1.500000 0.862500
v -1.237500 0.500000 0.862500
v -1.237500 -1.500000 0.887500
v -1.237500 0.500000 0.887500
v -1.262500 -1.500000 0.862500
v -1.262500 0.500000 0.862500
v -1.262500 -1.500000 0.887500
v -1.262500 0.500000 0.887500
vn 1.0000 -0.0000 -0.0000
vn -0.0000 -0.2983 0.9545
vn -1.0000 -0.0000 -0.0000
vn -0.0000 0.2983 -0.9545
vn -0.0000 -1.0000 -0.0000
vn -0.0000 1.0000 -0.0000
vn 0.9622 -0.2714 -0.0212
vn -0.2562 -0.9291 0.2666
vn -0.9622 0.2714 0.0212
vn 0.2562 0.9291 -0.2666
vn -0.1643 -0.5168 -0.8402
vn 0.1643 0.5168 0.8402
vn -0.2280 -0.6596 -0.7162
vn -0.2887 -0.8437 0.4525
vn 0.9458 -0.3247 -0.0020
vn 0.2887 0.8437 -0.4525
vn 0.2280 0.6596 0.7162
vn -0.9458 0.3247 0.0020
vn 0.3013 0.6295 0.7162
vn -0.3825 -0.8056 0.4525
vn -0.3013 -0.6296 -0.7162
vn 0.3825 0.8056 -0.4525
vn -0.9029 0.4298 0.0020
vn 0.9029 -0.4298 -0.0020
vn -0.9412 0.3378 -0.0015
vn -0.3299 -0.9182 0.2191
vn 0.1677 0.4712 0.8660
vn 0.3299 0.9182 -0.2191
vn 0.9412 -0.3378 0.0015
vn -0.1677 -0.4712 -0.8660
vn 0.1524 0.9883 -0.0000
vn -0.0454 -0.2948 0.9545
vn -0.1524 -0.9883 -0.0000
vn 0.0454 0.2948 -0.9545
vn -0.9883 0.1524 -0.0000
vn 0.9883 -0.1524 -0.0000
vn -0.2707 -0.8584 -0.4357
vn -0.1997 -0.6545 0.7292
vn 0.9546 -0.2980 -0.0060
vn 0.1997 0.6545 -0.7292
vn 0.2707 0.8584 0.4357
vn -0.9546 0.2979 0.0060
vn 0.9738 -0.2276 -0.0000
vn -0.2030 -0.8686 0.4520
vn -0.9645 0.2641 -0.0000
vn 0.2030 0.8686 -0.4520
vn -0.1588 -0.6794 -0.7164
vn 0.1588 0.6794 0.7164
vn -0.9806 0.1961 -0.0000
vn -0.1749 -0.8746 0.4521
vn 0.1368 0.6840 0.7165
vn 0.1749 0.8746 -0.4521
vn 0.9806 -0.1961 -0.0000
vn -0.1368 -0.6840 -0.7165
vn 0.0688 0.8753 0.4787
vn -0.0382 -0.7179 0.6951
vn -0.0688 -0.8753 -0.4787
vn 0.0382 0.7179 -0.6951
vn -0.9975 0.0692 0.0167
vn 0.9975 -0.0692 -0.0167
vn -0.9994 0.0333 -0.0000
vn -0.0203 -0.6078 0.7938
vn 0.0313 0.9386 0.3437
vn 0.0203 0.6078 -0.7938
vn 0.9994 -0.0333 -0.0000
vn -0.0313 -0.9386 -0.3437
vn 0.9970 -0.0773 -0.0040
vn -0.0493 -0.6738 0.7372
vn -0.9970 0.0773 0.0040
vn 0.0493 0.6738 -0.7372
vn -0.0716 -0.9024 -0.4250
vn 0.0716 0.9024 0.4250
vn -0.0423 -0.9026 -0.4285
vn -0.0318 -0.6777 0.7346
vn 0.9989 -0.0469 -0.0000
vn 0.0318 0.6777 -0.7346
vn 0.0423 0.9026 0.4285
vn -0.9989 0.0469 -0.0000
vn -0.0000 -0.6179 0.7862
vn -0.0000 0.9348 0.3553
vn -0.0000 0.6179 -0.7862
vn -0.0000 -0.9348 -0.3553
vn -0.0362 0.9993 -0.0000
vn 0.0108 -0.2981 0.9545
vn 0.0362 -0.9993 -0.0000
vn -0.0108 0.2981 -0.9545
vn -0.9993 -0.0362 -0.0000
vn 0.9993 0.0362 -0.0000
vn -0.0291 -0.9349 -0.3536
vn -0.0192 -0.6162 0.7873
vn 0.9995 -0.0311 -0.0000
vn 0.0192 0.6162 -0.7873
vn 0.0291 0.9349 0.3536
vn -0.9995 0.0311 -0.0000
vn -0.0000 -0.0000 1.0000
vn -0.0000 -0.0000 -1.0000
vt 0.000000 0.937500
vt 0.000000 1.000000
vt 0.031250 1.000000
vt 0.031250 0.937500
vt 1.000000 1.000000
vt 1.000000 0.937500
vt 0.968750 1.000000
vt 0.968750 0.937500
vt 1.000000 0.843750
vt 1.000000 0.906250
vt 0.000000 0.906250
vt 0.000000 0.843750
vt 1.000000 0.812500
vt 0.000000 0.812500
vt 0.000000 0.375000
vt 0.000000 0.437500
vt 0.031250 0.437500
vt 0.031250 0.375000
vt 1.000000 0.437500
vt 1.000000 0.375000
vt 0.968750 0.437500
vt 0.968750 0.375000
vt 1.000000 0.281250
vt 1.000000 0.343750
vt 0.000000 0.343750
vt 0.000000 0.281250
vt 1.000000 0.250000
vt 0.000000 0.250000
vt 0.000000 0.093750
vt 1.000000 0.093750
vt 1.000000 0.062500
vt 0.000000 0.062500
vt 0.000000 0.187500
vt 1.000000 0.187500
vt 0.031250 0.250000
vt 0.031250 0.187500
vt 1.000000 0.156250
vt 0.000000 0.156250
vt 0.968750 0.250000
vt 0.968750 0.187500
vt 1.000000 0.562500
vt 1.000000 0.625000
vt 0.968750 0.625000
vt 0.968750 0.562500
vt 0.000000 0.562500
vt 0.000000 0.625000
vt 0.000000 0.531250
vt 1.000000 0.531250
vt 1.000000 0.468750
vt 0.000000 0.468750
vt 0.031250 0.625000
vt 0.031250 0.562500
vt 0.031250 0.437500
vt 0.031250 0.375000
vt 0.000000 0.656250
vt 1.000000 0.656250
vt 0.000000 0.750000
vt 1.000000 0.750000
vt 0.031250 0.812500
vt 0.031250 0.750000
vt 1.000000 0.718750
vt 0.000000 0.718750
vt 0.968750 0.812500
vt 0.968750 0.750000
vt 0.031250 -0.000000
vt 0.062500 1.000000
vt 0.062500 -0.000000
vt 0.000000 -0.000000
vt 0.125000 -0.000000
vt 0.125000 1.000000
vt 0.093750 1.000000
vt 0.093750 -0.000000
vt 0.156250 1.000000
vt 0.156250 0.968750
vt 0.125000 0.968750
vt 0.125000 0.937500
vt 0.156250 0.937500
vt 0.906250 0.000000
vt 0.906250 1.000000
vt 0.937500 1.000000
vt 0.937500 0.000000
vt 0.875000 0.000000
vt 0.875000 1.000000
vt 1.000000 0.000000
vt 0.968750 0.000000
vt 0.843750 1.000000
vt 0.875000 0.968750
vt 0.843750 0.968750
vt 0.843750 0.937500
vt 0.875000 0.937500
s 0
f 1/1/1 2/2/1 4/3/1 3/4/1
f 3/1/2 4/2/2 8/5/2 7/6/2
f 7/6/3 8/5/3 6/7/3 5/8/3
f 5/9/4 6/10/4 2/11/4 1/12/4
f 3/12/5 7/9/5 5/13/5 1/14/5
f 8/6/6 4/1/6 2/11/6 6/10/6
f 9/15/7 10/16/7 12/17/7 11/18/7
f 11/15/8 12/16/8 16/19/8 15/20/8
f 15/20/9 16/19/9 14/21/9 13/22/9
f 13/23/10 14/24/10 10/25/10 9/26/10
f 11/26/11 15/23/11 13/27/11 9/28/11
f 16/20/12 12/15/12 10/25/12 14/24/12
f 22/29/13 18/30/13 20/31/13 24/32/13
f 22/33/14 21/28/14 17/27/14 18/34/14
f 24/33/15 23/28/15 21/35/15 22/36/15
f 20/30/16 19/37/16 23/38/16 24/29/16
f 17/34/17 21/33/17 23/38/17 19/37/17
f 18/34/18 17/27/18 19/39/18 20/40/18
f 32/6/19 28/1/19 26/11/19 30/10/19
f 27/1/20 28/2/20 32/5/20 31/6/20
f 27/12/21 31/9/21 29/13/21 25/14/21
f 29/9/22 30/10/22 26/11/22 25/12/22
f 31/6/23 32/5/23 30/7/23 29/8/23
f 25/1/24 26/2/24 28/3/24 27/4/24
f 34/41/25 33/42/25 35/43/25 36/44/25
f 38/45/26 37/46/26 33/42/26 34/41/26
f 33/41/27 37/45/27 39/47/27 35/48/27
f 36/49/28 35/48/28 39/47/28 40/50/28
f 40/45/29 39/46/29 37/51/29 38/52/29
f 38/50/30 34/49/30 36/19/30 40/16/30
f 48/20/31 44/15/31 42/25/31 46/24/31
f 43/15/32 44/16/32 48/19/32 47/20/32
f 43/26/33 47/23/33 45/27/33 41/28/33
f 45/23/34 46/24/34 42/25/34 41/26/34
f 47/20/35 48/19/35 46/21/35 45/22/35
f 41/15/36 42/16/36 44/53/36 43/54/36
f 54/55/37 50/56/37 52/42/37 56/46/37
f 54/57/38 53/14/38 49/13/38 50/58/38
f 56/57/39 55/14/39 53/59/39 54/60/39
f 52/56/40 51/61/40 55/62/40 56/55/40
f 49/58/41 53/57/41 55/62/41 51/61/41
f 50/58/42 49/13/42 51/63/42 52/64/42
f 57/1/43 58/2/43 60/3/43 59/4/43
f 59/1/44 60/2/44 64/5/44 63/6/44
f 63/6/45 64/5/45 62/7/45 61/8/45
f 61/9/46 62/10/46 58/11/46 57/12/46
f 59/12/47 63/9/47 61/13/47 57/14/47
f 64/6/48 60/1/48 58/11/48 62/10/48
f 66/34/49 65/27/49 67/39/49 68/40/49
f 70/33/50 69/28/50 65/27/50 66/34/50
f 65/34/51 69/33/51 71/38/51 67/37/51
f 68/30/52 67/37/52 71/38/52 72/29/52
f 72/33/53 71/28/53 69/35/53 70/36/53
f 70/29/54 66/30/54 68/31/54 72/32/54
f 80/6/55 76/1/55 74/11/55 78/10/55
f 75/1/56 76/2/56 80/5/56 79/6/56
f 75/12/57 79/9/57 77/13/57 73/14/57
f 77/9/58 78/10/58 74/11/58 73/12/58
f 79/6/59 80/5/59 78/7/59 77/8/59
f 73/1/60 74/2/60 76/3/60 75/4/60
f 82/58/61 81/13/61 83/63/61 84/64/61
f 86/57/62 85/14/62 81/13/62 82/58/62
f 81/58/63 85/57/63 87/62/63 83/61/63
f 84/56/64 83/61/64 87/62/64 88/55/64
f 88/57/65 87/14/65 85/59/65 86/60/65
f 86/55/66 82/56/66 84/42/66 88/46/66
f 89/45/67 90/46/67 92/51/67 91/52/67
f 91/45/68 92/46/68 96/42/68 95/41/68
f 95/41/69 96/42/69 94/43/69 93/44/69
f 93/49/70 94/48/70 90/47/70 89/50/70
f 91/50/71 95/49/71 93/19/71 89/16/71
f 96/41/72 92/45/72 90/47/72 94/48/72
f 102/29/73 98/30/73 100/31/73 104/32/73
f 102/33/74 101/28/74 97/27/74 98/34/74
f 104/33/75 103/28/75 101/35/75 102/36/75
f 100/30/76 99/37/76 103/38/76 104/29/76
f 97/34/77 101/33/77 103/38/77 99/37/77
f 98/34/78 97/27/78 99/39/78 100/40/78
f 106/20/3 105/19/3 107/21/3 108/22/3
f 110/15/79 109/16/79 105/19/79 106/20/79
f 105/20/80 109/15/80 111/25/80 107/24/80
f 108/23/81 107/24/81 111/25/81 112/26/81
f 112/15/1 111/16/1 109/53/1 110/54/1
f 110/26/82 106/23/82 108/27/82 112/28/82
f 120/41/83 116/45/83 114/47/83 118/48/83
f 115/45/84 116/46/84 120/42/84 119/41/84
f 115/50/85 119/49/85 117/19/85 113/16/85
f 117/49/86 118/48/86 114/47/86 113/50/86
f 119/41/87 120/42/87 118/43/87 117/44/87
f 113/45/88 114/46/88 116/51/88 115/52/88
f 126/55/89 122/56/89 124/42/89 128/46/89
f 126/57/90 125/14/90 121/13/90 122/58/90
f 128/57/91 127/14/91 125/59/91 126/60/91
f 124/56/92 123/61/92 127/62/92 128/55/92
f 121/58/93 125/57/93 127/62/93 123/61/93
f 122/58/94 121/13/94 123/63/94 124/64/94
f 129/65/1 130/3/1 132/66/1 131/67/1
f 131/68/95 132/2/95 136/3/95 135/65/95
f 135/69/3 136/70/3 134/71/3 133/72/3
f 133/72/96 134/71/96 130/66/96 129/67/96
f 131/70/5 135/73/5 133/74/5 129/75/5
f 136/74/6 132/75/6 130/76/6 134/77/6
f 137/78/1 138/79/1 140/80/1 139/81/1
f 139/82/95 140/83/95 144/79/95 143/78/95
f 143/84/3 144/5/3 142/7/3 141/85/3
f 141/85/96 142/7/96 138/80/96 137/81/96
f 139/86/5 143/83/5 141/87/5 137/88/5
f 144/87/6 140/88/6 138/89/6 142/90/6
