# Blender 3.6.23
# www.blender.org
o blinds_1x1
v 0.500000 0.400000 0.825000
v 0.500000 0.500000 0.856250
v 0.500000 0.400000 0.843750
v 0.500000 0.500000 0.875000
v -0.500000 0.400000 0.825000
v -0.500000 0.500000 0.856250
v -0.500000 0.400000 0.843750
v -0.500000 0.500000 0.875000
v 0.500000 -0.225000 0.825000
v 0.500000 -0.125000 0.856250
v 0.500000 -0.225000 0.843750
v 0.500000 -0.125000 0.875000
v -0.500000 -0.225000 0.825000
v -0.500000 -0.125000 0.856250
v -0.500000 -0.225000 0.843750
v -0.500000 -0.125000 0.875000
v -0.500000 -0.250000 0.875000
v -0.500000 -0.350000 0.843750
v -0.500000 -0.250000 0.856250
v -0.500000 -0.350000 0.825000
v 0.500000 -0.250000 0.875000
v 0.500000 -0.350000 0.843750
v 0.500000 -0.250000 0.856250
v 0.500000 -0.350000 0.825000
v 0.500000 -0.475000 0.825000
v 0.500000 -0.375000 0.856250
v 0.500000 -0.475000 0.843750
v 0.500000 -0.375000 0.875000
v -0.500000 -0.475000 0.825000
v -0.500000 -0.375000 0.856250
v -0.500000 -0.475000 0.843750
v -0.500000 -0.375000 0.875000
v -0.500000 0.000000 0.875000
v -0.500000 -0.100000 0.843750
v -0.500000 0.000000 0.856250
v -0.500000 -0.100000 0.825000
v 0.500000 0.000000 0.875000
v 0.500000 -0.100000 0.843750
v 0.500000 0.000000 0.856250
v 0.500000 -0.100000 0.825000
v -0.500000 0.125000 0.875000
v -0.500000 0.025000 0.843750
v -0.500000 0.125000 0.856250
v -0.500000 0.025000 0.825000
v 0.500000 0.125000 0.875000
v 0.500000 0.025000 0.843750
v 0.500000 0.125000 0.856250
v 0.500000 0.025000 0.825000
v 0.500000 0.150000 0.825000
v 0.500000 0.250000 0.856250
v 0.500000 0.150000 0.843750
v 0.500000 0.250000 0.875000
v -0.500000 0.150000 0.825000
v -0.500000 0.250000 0.856250
v -0.500000 0.150000 0.843750
v -0.500000 0.250000 0.875000
v -0.500000 0.375000 0.875000
v -0.500000 0.275000 0.843750
v -0.500000 0.375000 0.856250
v -0.500000 0.275000 0.825000
v 0.500000 0.375000 0.875000
v 0.500000 0.275000 0.843750
v 0.500000 0.375000 0.856250
v 0.500000 0.275000 0.825000
v 0.262500 -0.500000 0.862500
v 0.262500 0.500000 0.862500
v 0.262500 -0.500000 0.887500
v 0.262500 0.500000 0.887500
v 0.237500 -0.500000 0.862500
v 0.237500 0.500000 0.862500
v 0.237500 -0.500000 0.887500
v 0.237500 0.500000 0.887500
v -0.237500 -0.500000 0.862500
v -0.237500 0.500000 0.862500
v -0.237500 -0.500000 0.887500
v -0.237500 0.500000 0.887500
v -0.262500 -0.500000 0.862500
v -0.262500 0.500000 0.862500
v -0.262500 -0.500000 0.887500
v -0.262500 0.500000 0.887500
vn 1.0000 -0.0000 -0.0000
vn -0.0000 -0.2983 0.9545
vn -1.0000 -0.0000 -0.0000
vn -0.0000 0.2983 -0.9545
vn -0.0000 -1.0000 -0.0000
vn -0.0000 1.0000 -0.0000
vn -0.0000 -0.0000 1.0000
vn -0.0000 -0.0000 -1.0000
vt 0.000000 0.937500
vt 0.000000 1.000000
vt 0.031250 1.000000
vt 0.031250 0.937500
vt 0.500000 1.000000
vt 0.500000 0.937500
vt 0.468750 1.000000
vt 0.468750 0.937500
vt 0.500000 0.843750
vt 0.500000 0.906250
vt 0.000000 0.906250
vt 0.000000 0.843750
vt 0.500000 0.812500
vt 0.000000 0.812500
vt 0.500000 0.750000
vt 0.468750 0.812500
vt 0.468750 0.750000
vt 0.000000 0.750000
vt 0.000000 0.718750
vt 0.500000 0.718750
vt 0.500000 0.656250
vt 0.000000 0.656250
vt 0.031250 0.812500
vt 0.031250 0.750000
vt 0.500000 0.625000
vt 0.000000 0.625000
vt 0.000000 0.562500
vt 0.031250 0.625000
vt 0.031250 0.562500
vt 0.500000 0.562500
vt 0.468750 0.625000
vt 0.468750 0.562500
vt 0.500000 0.468750
vt 0.500000 0.531250
vt 0.000000 0.531250
vt 0.000000 0.468750
vt 0.500000 0.437500
vt 0.000000 0.437500
vt 0.000000 0.093750
vt 0.500000 0.093750
vt 0.500000 0.062500
vt 0.000000 0.062500
vt 0.000000 0.187500
vt 0.000000 0.250000
vt 0.500000 0.250000
vt 0.500000 0.187500
vt 0.031250 0.250000
vt 0.031250 0.187500
vt 0.500000 0.156250
vt 0.000000 0.156250
vt 0.468750 0.250000
vt 0.468750 0.187500
vt 0.500000 0.375000
vt 0.468750 0.437500
vt 0.468750 0.375000
vt 0.000000 0.375000
vt 0.000000 0.343750
vt 0.500000 0.343750
vt 0.500000 0.281250
vt 0.000000 0.281250
vt 0.031250 0.437500
vt 0.031250 0.375000
vt 0.031250 0.500000
vt 0.062500 1.000000
vt 0.062500 0.500000
vt -0.000000 0.500000
vt 0.125000 0.500000
vt 0.125000 1.000000
vt 0.093750 1.000000
vt 0.093750 0.500000
vt 0.156250 1.000000
vt 0.156250 0.968750
vt 0.125000 0.968750
vt 0.125000 0.937500
vt 0.156250 0.937500
vt 0.906250 0.500000
vt 0.906250 1.000000
vt 0.937500 1.000000
vt 0.937500 0.500000
vt 0.875000 0.500000
vt 0.875000 1.000000
vt 1.000000 0.500000
vt 1.000000 1.000000
vt 0.968750 1.000000
vt 0.968750 0.500000
vt 0.843750 1.000000
vt 0.875000 0.968750
vt 0.843750 0.968750
vt 0.843750 0.937500
vt 0.875000 0.937500
s 0
f 1/1/1 2/2/1 4/3/1 3/4/1
f 3/1/2 4/2/2 8/5/2 7/6/2
f 7/6/3 8/5/3 6/7/3 5/8/3
f 5/9/4 6/10/4 2/11/4 1/12/4
f 3/12/5 7/9/5 5/13/5 1/14/5
f 8/6/6 4/1/6 2/11/6 6/10/6
f 16/6/6 12/1/6 10/11/6 14/10/6
f 11/1/2 12/2/2 16/5/2 15/6/2
f 11/12/5 15/9/5 13/13/5 9/14/5
f 13/9/4 14/10/4 10/11/4 9/12/4
f 15/6/3 16/5/3 14/7/3 13/8/3
f 9/1/1 10/2/1 12/3/1 11/4/1
f 18/15/3 17/13/3 19/16/3 20/17/3
f 22/18/2 21/14/2 17/13/2 18/15/2
f 17/15/6 21/18/6 23/19/6 19/20/6
f 20/21/4 19/20/4 23/19/4 24/22/4
f 24/18/1 23/14/1 21/23/1 22/24/1
f 22/22/5 18/21/5 20/25/5 24/26/5
f 25/27/1 26/26/1 28/28/1 27/29/1
f 27/27/2 28/26/2 32/25/2 31/30/2
f 31/30/3 32/25/3 30/31/3 29/32/3
f 29/33/4 30/34/4 26/35/4 25/36/4
f 27/36/5 31/33/5 29/37/5 25/38/5
f 32/30/6 28/27/6 26/35/6 30/34/6
f 38/39/5 34/40/5 36/41/5 40/42/5
f 38/43/2 37/44/2 33/45/2 34/46/2
f 40/43/1 39/44/1 37/47/1 38/48/1
f 36/40/4 35/49/4 39/50/4 40/39/4
f 33/46/6 37/43/6 39/50/6 35/49/6
f 34/46/3 33/45/3 35/51/3 36/52/3
f 42/53/3 41/37/3 43/54/3 44/55/3
f 46/56/2 45/38/2 41/37/2 42/53/2
f 41/53/6 45/56/6 47/57/6 43/58/6
f 44/59/4 43/58/4 47/57/4 48/60/4
f 48/56/1 47/38/1 45/61/1 46/62/1
f 46/60/5 42/59/5 44/45/5 48/44/5
f 56/30/6 52/27/6 50/35/6 54/34/6
f 51/27/2 52/26/2 56/25/2 55/30/2
f 51/36/5 55/33/5 53/37/5 49/38/5
f 53/33/4 54/34/4 50/35/4 49/36/4
f 55/30/3 56/25/3 54/31/3 53/32/3
f 49/27/1 50/26/1 52/28/1 51/29/1
f 62/22/5 58/21/5 60/25/5 64/26/5
f 62/18/2 61/14/2 57/13/2 58/15/2
f 64/18/1 63/14/1 61/23/1 62/24/1
f 60/21/4 59/20/4 63/19/4 64/22/4
f 57/15/6 61/18/6 63/19/6 59/20/6
f 58/15/3 57/13/3 59/16/3 60/17/3
f 65/63/1 66/3/1 68/64/1 67/65/1
f 67/66/7 68/2/7 72/3/7 71/63/7
f 71/67/3 72/68/3 70/69/3 69/70/3
f 69/70/8 70/69/8 66/64/8 65/65/8
f 67/68/5 71/71/5 69/72/5 65/73/5
f 72/72/6 68/73/6 66/74/6 70/75/6
f 73/76/1 74/77/1 76/78/1 75/79/1
f 75/80/7 76/81/7 80/77/7 79/76/7
f 79/82/3 80/83/3 78/84/3 77/85/3
f 77/85/8 78/84/8 74/78/8 73/79/8
f 75/86/5 79/81/5 77/87/5 73/88/5
f 80/87/6 76/88/6 74/89/6 78/90/6
